<svg width="272" height="563" viewBox="0 0 272 563" fill="none" xmlns="http://www.w3.org/2000/svg">
<path d="M96.0296 37.5438C91.2449 47.6802 47.4593 154.134 3.1636 205.464C-3.76168 213.489 4.23023 223.82 13.7587 222.268C27.2156 220.144 45.625 215.953 60.739 211.296L72.6614 207.584C66.8852 287.135 71.3083 268.233 68.6872 448.515C66.7973 578.972 58.7555 564.106 127.26 558.5C158.137 556.087 184.694 554.701 186.6 555.553C191.149 557.629 213.487 552.866 210.632 517.909C197.778 352.803 199.199 252.587 185.594 208.352C185.573 208.07 261.515 189.862 261.797 189.842C262.079 189.821 291.14 185.84 249.76 143.79C233.048 126.727 133.819 11.508 132.724 8.1853C126.271 -8.21463 111.937 3.19164 96.0296 37.5438ZM100.721 535.069C98.1612 534.974 97.4844 529.636 97.6767 511.045C97.9891 482.52 95.7549 482.969 127.571 504.877C141.617 514.621 155.622 523.8 158.588 525.567C163.46 528.187 119.463 535.392 100.721 535.069ZM176.938 493.589C179.293 515.962 179.553 515.658 167.909 507.722C152.39 497.236 99.2639 465.127 98.3408 462.217C97.4385 459.589 98.6902 422.628 98.7026 418.941C150.347 459.81 150.738 459.354 174.742 475.314L176.938 493.589ZM174.274 434.227C174.712 445.965 174.742 456.029 174.35 456.483C172.149 459.339 100.153 400.114 100.001 399.984L99.7886 379.723C99.6344 354.493 99.3522 354.514 114.191 367.319C128.575 379.732 157.657 401.132 173.541 412.726L174.274 434.227ZM171.537 389.334C139.947 364.715 137.416 363.059 99.4527 330.826C99.5312 320.327 99.4185 295.661 100.595 294.298C102.032 292.633 154.133 339.708 163.512 343.839C171.288 347.379 170.055 346.051 171.537 389.334ZM167.365 294.065C169.903 326.635 174.608 321.185 111.755 278.304C98.3137 269.083 99.0227 271.015 99.4327 245.744L99.8513 224.443L165.769 272.346L167.365 294.065ZM157.357 225.461C158.488 231.191 158.515 235.442 157.648 235.222C154.855 233.868 109.27 204.04 104.763 202.528C104.178 202.288 103.75 200.334 103.564 197.795C102.576 188.225 94.9429 180.845 85.3998 180.271C83.2738 180.286 67.7551 189.084 42.8574 193.752C39.0805 194.455 35.826 194.552 35.7845 193.988C35.577 191.167 66.6593 147.191 66.7899 147.04C83.5202 158.572 117.366 183.024 126.953 189.977C154.089 209.959 155.227 213.848 157.357 225.461ZM172.588 185.769L163.377 189.708L133.619 168.783C92.4984 139.902 76.4091 131.301 76.1539 129.76C75.9403 128.783 86.9616 108.971 90.0354 104.491C91.6925 101.958 98.176 109.138 145.032 148.516C186.759 183.733 184.557 180.776 172.588 185.769ZM207.676 150.005C225.641 168.678 227.886 172.201 231.342 176.768C218.339 179.285 218.552 180.26 213.76 172.955C202.904 156.454 113.155 93.0057 100.306 82.1812C109.166 59.9753 117.592 37.6594 120.469 40.1421C120.772 40.4034 175.747 116.904 207.676 150.005Z" fill="#A24936"/>
</svg>
