<svg width="481" height="533" viewBox="0 0 481 533" fill="none" xmlns="http://www.w3.org/2000/svg">
<path d="M223.551 130.813C223.898 130.815 224.236 130.705 224.516 130.5C224.796 130.294 225.002 130.004 225.105 129.672C225.195 128.619 224.923 127.566 224.335 126.687C223.679 125.761 222.94 125.097 221.726 125.805C219.96 126.838 221.542 130.813 223.551 130.813Z" fill="#282B28"/>
<path d="M227.981 126.007C229.795 128.279 231.827 130.368 234.05 132.242C231.739 133.559 230.777 133.916 230.771 134.837C230.787 135.135 230.902 135.42 231.098 135.646C231.263 135.794 231.463 135.897 231.679 135.946C231.896 135.995 232.121 135.988 232.334 135.925C233.621 135.346 234.85 134.646 236.005 133.835C236.25 133.668 236.451 133.442 236.588 133.179C236.726 132.916 236.797 132.623 236.795 132.326C236.773 131.274 235.793 130.557 235.272 130.18C233.279 128.448 231.43 126.456 229.413 124.519C229.162 124.341 228.863 124.244 228.556 124.24C228.35 124.24 228.149 124.306 227.982 124.427C227.815 124.548 227.691 124.719 227.627 124.915C227.563 125.111 227.563 125.322 227.627 125.518C227.691 125.714 227.815 125.885 227.981 126.007Z" fill="#282B28"/>
<path d="M234.01 135.272C232.773 135.946 231.378 136.28 229.969 136.238C228.56 136.196 227.187 135.779 225.992 135.032C226.012 134.868 225.996 134.701 225.944 134.544C225.892 134.388 225.806 134.244 225.692 134.125C225.578 134.005 225.439 133.912 225.285 133.853C225.131 133.794 224.965 133.769 224.801 133.782C224.184 133.782 223.964 134.091 222.772 135.138C222.616 135.282 222.505 135.468 222.453 135.674C222.401 135.88 222.41 136.096 222.479 136.297C222.548 136.498 222.674 136.675 222.841 136.805C223.009 136.936 223.211 137.014 223.422 137.032C224.343 142.662 229.75 144.66 233.151 141.549C234.027 140.525 232.906 138.887 231.421 139.875C230.92 140.348 230.265 140.626 229.577 140.658C228.888 140.691 228.21 140.477 227.666 140.054C226.825 139.352 226.209 138.417 225.897 137.367C229.993 139.214 234.772 137.752 235.364 136.575C235.463 136.387 235.499 136.172 235.466 135.962C235.433 135.753 235.332 135.559 235.179 135.412C235.026 135.265 234.829 135.171 234.618 135.146C234.407 135.121 234.194 135.165 234.01 135.272Z" fill="#282B28"/>
<path d="M221.679 123.721C223.52 123.54 223.492 121.578 222.331 121.377C221.354 121.403 220.406 121.719 219.609 122.285C218.811 122.851 218.2 123.641 217.854 124.555C217.791 124.728 217.775 124.914 217.808 125.094C217.842 125.275 217.923 125.443 218.044 125.581C218.164 125.72 218.319 125.824 218.494 125.882C218.668 125.94 218.854 125.95 219.034 125.911C219.79 125.735 219.555 125.074 220.797 124.195C221.069 123.999 221.365 123.84 221.679 123.721Z" fill="#282B28"/>
<path d="M93.7935 216.857C94.929 216.148 93.813 214.15 92.6384 214.878C87.0026 218.399 49.226 241.827 36.1326 250.311C35.8904 250.498 35.7276 250.77 35.6765 251.071C35.6255 251.373 35.69 251.683 35.8572 251.939C36.0243 252.195 36.2819 252.379 36.5786 252.454C36.8752 252.529 37.1892 252.489 37.4578 252.343C56.3601 240.987 74.9666 228.739 93.7935 216.857Z" fill="#282B28"/>
<path d="M72.4722 158.922C72.6152 158.93 72.758 158.906 72.89 158.85C73.022 158.795 73.1397 158.71 73.2342 158.603C73.3288 158.495 73.3977 158.368 73.4359 158.23C73.474 158.092 73.4803 157.947 73.4543 157.806C73.4739 157.673 73.4656 157.537 73.4301 157.407C73.3946 157.277 73.3325 157.156 73.2479 157.051C73.1632 156.946 73.0578 156.86 72.9383 156.798C72.8187 156.736 72.6876 156.699 72.5532 156.69C48.9578 155.389 25.2981 155.862 1.77365 158.105C1.52097 158.141 1.28927 158.266 1.11965 158.456C0.950041 158.647 0.853491 158.892 0.847137 159.147C0.840782 159.402 0.925036 159.651 1.08494 159.85C1.24485 160.049 1.47007 160.185 1.72064 160.234C1.72064 160.234 70.1175 158.892 72.4722 158.922Z" fill="#282B28"/>
<path d="M79.6648 63.3956C79.8018 63.5118 79.9627 63.5966 80.136 63.6439C80.3093 63.6913 80.4909 63.7002 80.668 63.6698C80.8451 63.6395 81.0134 63.5708 81.1611 63.4685C81.3088 63.3661 81.4323 63.2327 81.5229 63.0775C81.6037 62.8636 81.6256 62.632 81.5863 62.4067C81.5471 62.1815 81.4481 61.9709 81.2997 61.7969C71.7049 51.7501 61.2731 41.5666 49.4407 30.7052C49.3296 30.6026 49.1961 30.5273 49.0509 30.4852C48.9057 30.443 48.7527 30.4351 48.6039 30.4622C48.4551 30.4892 48.3147 30.5504 48.1936 30.641C48.0725 30.7316 47.9742 30.8491 47.9062 30.9842C47.1083 32.58 46.341 29.8821 79.6648 63.3956Z" fill="#282B28"/>
<path d="M121.794 24.2272C130.379 40.5431 130.262 40.6575 131.191 40.6575H131.444C131.622 40.6563 131.795 40.6069 131.947 40.5146C132.098 40.4224 132.222 40.2908 132.304 40.1338C132.387 39.9769 132.425 39.8005 132.415 39.6234C132.405 39.4464 132.348 39.2753 132.248 39.1286C130.814 36.0094 129.104 32.9543 127.452 29.9941C126.914 29.0344 120.497 17.2187 119.319 15.0788C119.226 14.9033 119.082 14.7596 118.907 14.6662C118.731 14.5727 118.532 14.5338 118.334 14.5543C118.167 14.5552 118.002 14.5991 117.856 14.6817C117.711 14.7644 117.589 14.883 117.502 15.0263C117.415 15.1697 117.367 15.3329 117.361 15.5003C117.355 15.6678 117.393 15.8339 117.469 15.9828C118.892 18.7281 120.349 21.4791 121.794 24.2272Z" fill="#282B28"/>
<path d="M259.72 44.8339C261.199 44.2564 259.134 45.5035 269.764 2.28917C269.802 2.08741 269.784 1.87902 269.712 1.68693C269.639 1.49484 269.515 1.32651 269.353 1.20045C269.191 1.0744 268.997 0.995521 268.793 0.972494C268.589 0.949466 268.382 0.983185 268.196 1.06994C267.894 1.21873 267.663 1.48026 267.552 1.79813C263.762 15.6174 260.704 29.6268 258.389 43.7681C258.36 43.9397 258.377 44.1161 258.438 44.2789C258.5 44.4417 258.604 44.5849 258.74 44.6938C258.876 44.8026 259.039 44.873 259.211 44.8977C259.384 44.9223 259.559 44.9003 259.72 44.8339Z" fill="#282B28"/>
<path d="M359.683 78.1883C362.761 74.1485 366.343 70.5198 370.344 67.391C370.344 67.391 402.03 39.597 408.137 34.1398C409.183 33.2386 408.165 31.3972 406.536 32.3347C400.891 37.1921 368.268 66.0937 368.268 66.0937C364.332 69.1969 360.838 72.8219 357.881 76.8687C357.725 77.1363 357.676 77.4529 357.744 77.755C357.812 78.0572 357.991 78.3226 358.246 78.498C358.488 78.6035 358.757 78.6304 359.015 78.5748C359.273 78.5192 359.506 78.384 359.683 78.1883Z" fill="#282B28"/>
<path d="M391.085 122.122C390.716 122.259 390.563 122.644 390.451 123.09C390.407 123.263 390.412 123.446 390.464 123.616C390.517 123.787 390.615 123.941 390.749 124.059C390.882 124.178 391.046 124.258 391.222 124.291C391.397 124.323 391.579 124.306 391.746 124.242C411.728 116.623 415.235 116.098 424.272 112.996C424.545 112.859 424.764 112.634 424.894 112.357C424.974 112.169 425.001 111.962 424.972 111.76C424.943 111.557 424.858 111.367 424.728 111.209C424.598 111.051 424.427 110.932 424.234 110.865C424.041 110.798 423.833 110.785 423.633 110.828C415.743 112.99 398.665 119.273 391.085 122.122Z" fill="#282B28"/>
<path d="M479.508 217.616C478.861 217.362 392.566 214.137 386.216 214.268C386.045 214.272 385.879 214.321 385.732 214.409C385.586 214.498 385.466 214.623 385.384 214.773C385.301 214.923 385.259 215.091 385.262 215.262C385.266 215.433 385.314 215.6 385.402 215.747C385.477 215.924 385.601 216.075 385.759 216.185C385.917 216.295 386.102 216.357 386.294 216.366C394.53 216.645 475.234 219.89 479.073 219.89C479.344 219.885 479.606 219.787 479.813 219.612C480.021 219.437 480.162 219.196 480.213 218.93C480.264 218.663 480.222 218.387 480.094 218.148C479.965 217.909 479.759 217.721 479.508 217.616Z" fill="#282B28"/>
<path d="M447.367 275.255C447.133 274.976 448.461 275.645 425.39 265.007C426.663 262.73 427.979 260.473 429.338 258.236C429.44 257.96 429.447 257.658 429.359 257.377C429.271 257.096 429.092 256.852 428.851 256.684C428.61 256.515 428.32 256.431 428.026 256.444C427.732 256.457 427.451 256.567 427.226 256.757L417.698 261.72C400.121 253.509 383.965 246.448 368.382 240.159C362.03 237.604 345.178 230.952 345.122 230.916L345.1 230.958C344.082 230.662 343.984 230.883 343.766 231.415C343.376 232.384 343.431 232.364 347.321 233.949C331.937 263.707 317.468 287.715 300.379 322.757C297.832 323.944 295.758 325.951 294.486 328.457C292.765 332.824 297.12 332.849 277.746 248.699C270.37 216.654 270.944 218.453 270.565 218.141C270.399 218.003 270.199 217.913 269.986 217.881C269.773 217.849 269.556 217.876 269.357 217.959C269.357 217.959 255.909 220.412 251.016 221.424C250.597 218.137 250.994 214.796 252.173 211.698C252.365 211.876 252.61 211.984 252.87 212.005C253.13 212.027 253.39 211.96 253.607 211.816C258.248 209.206 262.53 206.003 266.344 202.288C268.352 200.557 270.057 198.502 271.388 196.208C271.989 194.03 271.706 191.703 270.599 189.733C268.729 184.404 266.492 179.211 263.903 174.193C293.315 155.612 319.081 131.808 339.93 103.957C340.7 104.052 345.61 104.66 345.956 104.66C348.381 104.66 349.388 102.336 347.94 100.891C348.978 100.857 350.588 100.634 350.897 99.1136C350.967 98.6909 350.906 98.257 350.721 97.8706C350.535 97.4843 350.236 97.1643 349.862 96.9541C349.999 96.7386 350.091 96.4978 350.134 96.2461C350.176 95.9943 350.167 95.7366 350.108 95.4883C350.049 95.2399 349.941 95.0059 349.79 94.8C349.639 94.5942 349.448 94.4206 349.229 94.2897C347.407 93.1787 345.268 92.7038 343.147 92.9393C343.397 92.6986 343.584 92.3999 343.69 92.0696C343.797 91.7394 343.821 91.3878 343.759 91.0463C343.697 90.7048 343.552 90.3838 343.336 90.112C343.12 89.8401 342.841 89.6258 342.522 89.4881C341.675 89.2186 340.756 89.2928 339.963 89.6946C337.142 90.5494 334.694 92.338 333.022 94.7668C331.878 94.9984 308.955 105.558 293.962 113.655C279.147 121.668 246.005 141.775 233.157 149.847C232.984 149.428 232.783 148.929 232.668 148.564C233.282 148.381 233.885 148.163 234.474 147.911C240.126 144.613 241.937 137.233 240.72 131.199C240.634 130.744 240.497 130.306 240.4 129.854C241.894 127.847 243.114 125.649 244.027 123.32C244.15 122.141 244.039 120.95 243.699 119.815C243.359 118.68 242.797 117.624 242.046 116.707C241.519 116.025 241.225 115.192 241.209 114.33C241.404 112.62 244.278 111.013 242.325 107.5C241.669 106.292 240.789 105.219 239.733 104.339C236.089 100.508 231.604 97.5763 226.634 95.774C222.011 94.1224 216.958 94.1224 212.335 95.774C210.297 96.8785 208.329 98.1075 206.442 99.454C204.565 100.412 202.593 101.171 200.558 101.719C198.221 102.678 196.171 104.222 194.603 106.202C193.035 108.183 192.002 110.533 191.605 113.027C190.682 118.158 192.9 123.071 192.283 128.093C191.795 132.05 187.429 134.608 183.221 136.589C181.827 137.114 180.485 137.768 179.212 138.542C142.618 126.266 109.085 116.518 88.1214 111.164C87.8444 111.045 87.5322 111.039 87.2509 111.147C86.2429 109.319 84.9141 107.686 83.3282 106.329C82.9869 106.096 82.5928 105.953 82.182 105.912C81.7712 105.871 81.3566 105.934 80.9762 106.094C79.7235 106.739 79.9774 108.351 80.3596 109.704C78.2666 108.798 75.9509 108.536 73.7082 108.951C73.4062 109.005 73.1228 109.135 72.8847 109.328C72.6466 109.521 72.4616 109.772 72.3472 110.057C72.2328 110.342 72.1927 110.651 72.2307 110.955C72.2687 111.259 72.3835 111.549 72.5643 111.797C72.1279 111.904 71.7357 112.144 71.4423 112.484C71.1489 112.825 70.969 113.248 70.9275 113.695C70.8861 114.143 70.9852 114.592 71.2111 114.98C71.4369 115.369 71.7783 115.677 72.1877 115.862C71.7752 116.22 71.5122 116.72 71.4507 117.263C71.3893 117.806 71.5338 118.353 71.8557 118.794C73.4153 121.043 75.5747 119.414 82.4577 123.177C82.4326 123.336 82.3768 123.476 82.3517 123.635C82.3517 126.754 84.9966 128.445 87.1198 129.806C109.122 143.918 129.598 156.836 165.123 176.263C162.193 182.66 158.957 188.993 155.461 195.092C155.339 195.332 155.296 195.603 155.337 195.869C155.378 196.134 155.501 196.38 155.69 196.571C164.194 203.512 173.516 209.385 183.447 214.059C185.073 215.144 186.92 215.854 188.854 216.137C189.635 216.153 190.394 215.883 190.989 215.378C191.268 215.052 191.499 214.701 191.75 214.357C191.831 214.391 191.915 214.416 191.996 214.449C192.339 222.158 188.188 228.358 184.134 235.001C157.525 240.773 130.644 246.975 104.061 253.504C103.772 253.633 103.541 253.863 103.41 254.151C103.278 254.438 103.256 254.763 103.346 255.066C110.26 273.743 116.557 292.687 123.155 311.946C122.876 311.834 56.1703 285.567 43.8831 282.291C42.3235 280.659 39.5642 283.583 41.9636 284.16C64.3338 315.553 88.219 357.2 119.805 410.268C109.196 408.204 98.2225 409.13 88.1102 412.944C80.1224 416.03 71.306 423.127 72.7652 432.985C74.1965 442.75 84.8878 447.936 92.8783 451.438C104.17 456.234 114.968 462.121 125.117 469.015C134.998 476.069 142.625 485.836 147.074 497.132C146.846 497.267 146.672 497.477 146.583 497.727C145.004 502.587 141.756 517.449 140.518 523.063C139.745 525.803 139.2 528.602 138.888 531.433C138.891 531.719 138.998 531.995 139.189 532.209C139.38 532.422 139.643 532.559 139.928 532.593C140.212 532.627 140.5 532.557 140.736 532.394C140.973 532.232 141.142 531.989 141.212 531.712C142.035 528.952 142.663 526.139 143.09 523.291C143.681 520.524 147.85 502.523 148.391 500.109C192.194 517.257 239.437 519.667 285.793 509.732C288.587 509.486 291.309 508.708 293.811 507.441C294.45 509.285 302.809 532.158 302.809 532.158C302.923 532.475 303.158 532.734 303.462 532.878C303.767 533.022 304.116 533.039 304.433 532.925C304.75 532.812 305.009 532.577 305.153 532.272C305.297 531.968 305.314 531.618 305.2 531.301C305.2 531.301 296.713 508.34 295.544 505.555C296.416 504.231 296.906 502.692 296.961 501.108C298.448 492.677 301.679 484.65 306.447 477.54C311.215 470.429 317.414 464.393 324.649 459.816C342.748 448.341 355.554 445.414 375.631 438.461C381.264 436.773 386.758 434.652 392.064 432.117C400.356 428.063 408.19 419.713 403.455 410.458C398.849 401.449 385.477 397.87 375.028 398.369C373.318 398.467 371.616 398.668 369.931 398.972C397.775 359.401 419.169 318.341 447.373 276.798C447.552 276.58 447.65 276.307 447.649 276.025C447.648 275.743 447.548 275.471 447.367 275.255ZM349.589 235.193C349.868 235.193 374.585 245.056 387.05 250.452C392.979 253.018 411.842 261.475 415.252 262.987L304.129 320.846C316.338 296.202 349.41 235.472 349.589 235.193ZM294.308 337.215C294.464 337.074 294.588 336.902 294.672 336.71C294.755 336.517 294.797 336.309 294.793 336.099C294.793 335.985 294.76 335.867 294.746 335.753C296.25 330.756 296.794 327.336 301.3 325.079C306.179 322.634 424.436 260.964 424.718 260.816C417.889 273.079 411.948 285.815 406.94 298.928C405.545 302.343 363.924 401.792 361.742 406.078C359.424 410.054 354.591 411.967 350.526 414.205C315.074 433.76 280.391 452.325 246.412 473.42C264.712 428.297 279.939 383.733 294.316 337.218L294.308 337.215ZM221.662 224.343C221.886 225.05 222.26 225.701 222.759 226.25C223.258 226.799 223.87 227.233 224.552 227.523C220.663 227.889 216.747 227.853 212.865 227.415C209.223 226.656 205.621 225.716 202.073 224.597L203.379 217.954C209.575 219.386 215.904 220.168 222.262 220.286C221.624 221.537 221.414 222.961 221.662 224.343ZM232.409 223.411C233.073 223.338 233.732 223.231 234.384 223.09C233.803 223.832 233.06 224.432 232.213 224.844C231.366 225.257 230.436 225.472 229.493 225.473C228.115 225.64 225.551 225.955 224.533 224.725C224.091 224.041 223.889 223.23 223.96 222.419C224.031 221.608 224.37 220.844 224.923 220.247C227.594 220.193 230.255 219.926 232.883 219.449C232.925 219.449 232.967 219.505 233.009 219.508C233.553 219.571 234.052 219.841 234.404 220.261L232.172 220.64C231.827 220.699 231.516 220.885 231.302 221.161C231.088 221.438 230.985 221.785 231.014 222.133C231.044 222.482 231.203 222.807 231.461 223.044C231.719 223.28 232.056 223.411 232.406 223.411H232.409ZM221.829 278.541C222.047 277.682 222.758 275.553 223.554 275.121C226.999 259.625 229.502 246.465 226.868 231.265C226.805 230.9 226.889 230.525 227.102 230.222C227.315 229.92 227.64 229.714 228.005 229.651C228.37 229.587 228.745 229.672 229.047 229.885C229.35 230.098 229.556 230.423 229.619 230.788C230.612 237.316 230.923 243.931 230.545 250.524C231.435 249.981 232.191 249.244 232.757 248.369C233.324 247.494 233.686 246.503 233.818 245.469C234.148 240.451 233.858 235.411 232.956 230.464C232.919 230.282 232.919 230.095 232.956 229.913C232.993 229.731 233.066 229.558 233.17 229.405C233.274 229.251 233.408 229.12 233.564 229.019C233.72 228.918 233.894 228.849 234.077 228.816C234.259 228.783 234.447 228.787 234.628 228.828C234.809 228.868 234.98 228.944 235.131 229.052C235.283 229.159 235.411 229.296 235.509 229.454C235.607 229.611 235.672 229.787 235.701 229.97C236.669 235.212 236.963 240.557 236.577 245.873C236.346 247.643 235.633 249.316 234.515 250.709C233.398 252.101 231.919 253.16 230.241 253.769C229.51 259.924 227.839 268.375 226.436 274.92C226.513 274.94 226.59 274.964 226.664 274.992C227.845 275.464 227.99 279.032 228.257 280.24C233.508 304.407 237.264 311.767 258.417 366.789C253.54 368.463 257.823 367.327 229.122 378.247C223.785 380.279 204.821 387.022 200.729 388.517C198.974 384.729 190.021 365.361 187.242 359.409C191.092 351.717 204.063 321.797 205.845 317.451C212.115 302.175 203.993 322.682 221.829 278.541ZM236.295 218.715C238.282 218.198 240.234 217.558 242.141 216.799L242.445 223.458C240.081 224.295 237.724 225.065 235.38 225.671C236.41 224.86 237.083 223.679 237.254 222.379C237.425 221.08 237.081 219.765 236.295 218.715ZM259.21 368.862C263.152 379.101 267.139 389.329 271.265 399.502C271.405 400.135 259.782 432.678 243.605 474.664C229.161 449.454 214.712 418.652 201.58 390.353C217.27 385.158 254.403 371.066 259.21 368.862ZM267.655 220.529C267.986 220.425 268.322 220.338 268.662 220.269C268.923 220.96 269.125 221.671 269.268 222.395C278.935 265.426 287.74 299.999 292.146 335.083C291.78 336.236 291.49 337.396 291.169 338.554C290.884 330.995 289.925 323.477 288.301 316.089C280.698 278.424 271.109 256.439 258.646 236.979C255.496 232.919 253.052 228.358 251.417 223.486C252.452 223.31 266.659 220.825 267.655 220.529ZM252.946 235.651C253.178 235.54 253.431 235.482 253.688 235.478C253.944 235.475 254.199 235.527 254.433 235.631C254.698 235.767 254.913 235.984 255.046 236.251C255.179 236.518 255.223 236.82 255.171 237.114C255.12 237.407 254.976 237.676 254.76 237.882C254.544 238.088 254.269 238.219 253.973 238.256C246.261 240.734 242.071 236.259 240.603 228.505C240.535 228.142 240.614 227.766 240.822 227.46C241.031 227.155 241.353 226.945 241.716 226.876C242.08 226.808 242.456 226.886 242.762 227.095C243.067 227.304 243.277 227.626 243.346 227.989C244.481 233.991 247.14 237.551 252.946 235.651ZM248.549 221.017C247.316 221.575 246.086 222.102 244.855 222.585C245.014 221.748 245.006 222.189 244.261 215.928C245.885 215.198 247.468 214.381 249.004 213.481C248.385 215.943 248.231 218.499 248.549 221.017ZM267.309 188.042C268.292 189.947 268.962 191.996 269.296 194.113C269.296 195.882 267.103 197.804 265.844 199.169C262.369 202.907 258.389 206.142 254.02 208.78C253.973 208.501 251.978 198.075 251.919 197.79C252.014 197.511 255.209 170.169 253.616 161.958C259.215 170.069 263.813 178.827 267.309 188.042ZM340.633 92.3451C338.382 94.1 338.306 93.754 338.083 94.2981C337.997 94.5406 337.983 94.8029 338.042 95.0533C338.102 95.3037 338.232 95.5317 338.418 95.7098C338.571 95.8375 338.751 95.929 338.944 95.9773C339.137 96.0256 339.339 96.0296 339.534 95.9888C340.887 95.6307 342.291 95.5099 343.685 95.6317C343.118 95.7071 342.558 95.8313 342.011 96.0027C341.708 96.0855 341.445 96.2781 341.276 96.5433C341.106 96.8086 341.041 97.1274 341.093 97.4379C341.145 97.7484 341.311 98.0285 341.558 98.2237C341.805 98.4189 342.116 98.5153 342.43 98.4942C343.665 98.3227 344.917 98.3227 346.152 98.4942C346.69 98.5082 346.33 98.5193 342.525 98.6616C340.351 98.1706 339.927 101.002 341.688 101.22C342.627 101.391 343.552 101.632 344.455 101.94C343.708 101.853 340.427 101.438 339.509 101.34C338.219 99.4008 336.732 97.6001 335.073 95.9665C336.574 94.2945 338.493 93.0515 340.633 92.3646V92.3451ZM316.667 104.869C316.946 104.735 332.779 97.2973 333.061 97.4061C334.748 99.1942 336.25 101.148 337.545 103.237C337.158 103.738 336.745 104.217 336.309 104.674C315.928 131.28 291.002 154.07 262.68 171.991C260.463 167.861 258.01 163.861 255.334 160.011C255.212 159.833 255.044 159.689 254.85 159.595C254.655 159.501 254.439 159.459 254.223 159.473C254.007 159.488 253.798 159.558 253.617 159.677C253.437 159.796 253.29 159.96 253.192 160.153C252.581 157.199 251.216 154.453 249.23 152.182C247.245 149.911 244.705 148.193 241.859 147.194C265.917 132.468 290.798 117.249 316.667 104.869ZM239.105 148.882C248.993 149.772 251.758 161.158 251.827 167.764C251.827 172.2 251.501 174.84 250.268 190.271C247.895 179.44 244.773 168.787 240.927 158.387C240.167 155.413 238.691 152.67 236.627 150.397L239.105 148.882ZM232.755 152.623C233.372 152.439 233.282 152.442 234.635 151.616C237.13 154.557 238.879 158.056 239.736 161.816C240.799 165.131 242.637 170.186 245.182 179.468C247.84 189.173 249.941 199.022 251.473 208.967C243.528 214.652 234.052 217.804 224.285 218.012C206.334 218.431 194.231 212.273 192.922 212.566C195.991 207.578 198.695 202.375 201.013 196.998C206.972 183.254 210.414 168.552 211.174 153.591C211.255 153.415 211.52 152.799 211.573 152.665C230.838 159.835 212.176 152.869 224.619 157.531C224.74 157.58 224.87 157.605 225.001 157.604C225.131 157.602 225.261 157.575 225.38 157.523C225.5 157.47 225.608 157.395 225.699 157.3C225.789 157.205 225.859 157.093 225.905 156.971C225.951 156.848 225.972 156.718 225.966 156.587C225.961 156.457 225.929 156.328 225.873 156.21C225.818 156.092 225.738 155.986 225.641 155.899C225.543 155.812 225.429 155.745 225.306 155.703C214.146 151.518 215.786 152.179 215.211 151.783C215.172 151.482 215.115 151.184 215.038 150.89C215.038 150.804 214.997 150.74 214.985 150.659C217.852 152.299 221.045 153.284 224.338 153.544C226.24 153.931 228.18 154.106 230.121 154.065C230.641 154.05 231.149 153.911 231.604 153.66C232.059 153.409 232.448 153.054 232.738 152.623H232.755ZM199.788 223.857C197.784 223.221 195.839 222.412 193.974 221.441C194.508 219.467 194.668 217.411 194.445 215.378C196.552 216.118 198.692 216.757 200.862 217.318C199.746 222.54 199.635 222.638 199.788 223.857ZM203.393 133.375C204.397 129.854 209.994 132.739 210.27 135.476C210.252 136.247 210.414 137.011 210.745 137.708C211.213 138.372 211.621 138.224 212.639 139.437C213.437 140.386 214.871 142.096 215.304 140.936C215.713 139.266 215.561 137.508 214.871 135.933C214.935 134.638 215.433 133.403 216.286 132.426C218.406 129.232 216.221 125.128 218.37 122.089C220.73 119.104 222.683 119.966 225.841 117.126C226.373 116.639 226.761 116.016 226.965 115.325C227.168 114.634 227.179 113.9 226.996 113.203C229.152 114.401 231.13 115.894 232.872 117.639C232.987 117.818 233.098 117.999 233.207 118.18H233.171C232.324 118.3 231.557 118.743 231.031 119.416C230.336 120.304 231.589 121.648 232.426 121.043C232.717 120.773 233.072 120.581 233.458 120.485C233.795 120.409 234.146 120.424 234.476 120.527H234.507C234.85 121.202 235.185 121.883 235.486 122.58C235.298 122.354 235.054 122.18 234.779 122.074C234.504 121.969 234.206 121.935 233.915 121.977C233.623 122.019 233.347 122.135 233.113 122.314C232.878 122.493 232.694 122.729 232.576 122.999C232.408 123.699 232.446 124.433 232.686 125.111C232.927 125.79 233.36 126.384 233.932 126.821C234.179 127.044 234.489 127.184 234.819 127.221C235.149 127.259 235.482 127.192 235.772 127.031C236.063 126.869 236.295 126.621 236.437 126.321C236.579 126.02 236.623 125.683 236.563 125.356C238.399 130.741 239.373 137.529 236.583 142.317C235.971 143.394 235.134 144.327 234.13 145.053C233.126 145.779 231.978 146.281 230.763 146.524C230.59 146.569 230.427 146.649 230.286 146.759C230.144 146.868 230.026 147.005 229.939 147.162C229.851 147.318 229.796 147.491 229.777 147.669C229.759 147.847 229.776 148.027 229.828 148.198C230.336 149.688 230.665 150.517 230.944 151.348C230.442 151.8 228.788 151.652 227.875 151.568C223.208 151.483 218.633 150.253 214.553 147.986C214.146 147.757 214.388 148.304 213.92 146.611C213.654 145.313 213.281 144.04 212.804 142.805C212.653 142.481 212.103 140.713 210.851 141.499C209.75 141.661 208.626 141.472 207.639 140.959C206.651 140.446 205.85 139.636 205.349 138.642C204.65 137.966 204.111 137.142 203.773 136.231C203.434 135.319 203.305 134.343 203.393 133.375ZM208.234 159.394C207.003 171.304 204.038 182.969 199.434 194.021C199.833 180.317 199.015 174.081 199.116 168.632C203.21 166.811 206.466 163.512 208.234 159.394ZM83.0492 120.672C81.0351 119.607 78.8844 118.824 76.6573 118.345C75.833 118.194 75.0249 117.965 74.2439 117.662C75.4841 117.566 76.7314 117.698 77.9239 118.052C78.1511 118.1 78.3871 118.083 78.605 118.003C78.823 117.923 79.0141 117.784 79.1566 117.6C79.2991 117.417 79.3873 117.198 79.4111 116.967C79.4348 116.736 79.3932 116.503 79.291 116.294C79.2651 116.11 79.1866 115.936 79.065 115.795C78.9433 115.653 78.7835 115.55 78.6047 115.496C78.0053 115.316 77.3936 115.18 76.7744 115.089L74.0068 114.168C74.6218 114.085 75.2478 114.138 75.8398 114.325C76.8548 114.518 77.8551 114.782 78.8335 115.114C80.4656 115.672 80.8646 113.066 79.6258 112.623C78.6196 112.339 77.666 111.895 76.8023 111.306C78.6067 111.513 80.3166 112.223 81.7379 113.354C81.92 113.595 82.1849 113.76 82.4814 113.817C82.778 113.874 83.0852 113.819 83.3438 113.663C83.6024 113.507 83.7941 113.261 83.8819 112.972C83.9697 112.683 83.9473 112.372 83.8192 112.098C83.3727 111.04 83.0044 109.951 82.7171 108.84C83.9427 110.314 84.9828 111.933 85.814 113.661L84.207 117.846C83.7413 118.753 83.3539 119.699 83.0492 120.672ZM191.823 209.377C191.153 210.521 189.906 213.4 188.832 213.635C187.663 213.891 184.323 211.897 182.92 211.233C174.524 207.196 166.611 202.224 159.331 196.412C158.304 195.715 158.092 195.43 158.044 195.544C161.496 189.717 164.571 183.674 167.251 177.454C167.466 177.568 167.678 177.694 167.896 177.806C168.185 177.952 168.521 177.979 168.831 177.88C169.14 177.781 169.397 177.564 169.548 177.275C169.697 176.996 169.729 176.668 169.637 176.365C169.545 176.061 169.336 175.807 169.056 175.657C138.645 159.369 117.266 146.471 88.2748 127.906C85.6578 126.232 84.2321 125.102 85.0859 122.605C85.9734 119.609 87.1188 116.694 88.5092 113.895C88.7882 113.942 118.334 122.212 121.635 123.175C145.989 130.099 161.253 135.194 176.598 140.33C175.411 141.012 174.399 141.962 173.644 143.104C172.89 144.247 172.412 145.55 172.251 146.909C172.1 150.277 175.412 154.132 173.088 157.009C171.512 159.007 168.066 158.683 165.974 160.357C165.315 161.056 164.83 161.901 164.557 162.822C164.284 163.743 164.231 164.715 164.403 165.661C164.574 166.606 164.965 167.498 165.544 168.264C166.123 169.031 166.874 169.651 167.737 170.074C167.774 170.104 167.821 170.118 167.869 170.114C167.916 170.109 167.959 170.085 167.989 170.048C168.019 170.011 168.033 169.964 168.028 169.916C168.023 169.869 168 169.825 167.963 169.795C166.939 168.632 167.963 166.59 169.43 166.074C171.034 165.735 172.704 165.919 174.196 166.598C179.667 168.702 185.442 169.911 191.298 170.178C193.15 170.237 194.998 170 196.775 169.477C196.739 178.107 197.838 186.496 196.903 199.679C195.28 203.108 193.575 206.386 191.823 209.377ZM186.826 237.802C189.931 238.291 193.111 237.725 195.856 236.192C198.6 234.66 200.752 232.251 201.965 229.351C202.124 229.026 202.404 228.777 202.745 228.654C203.085 228.532 203.46 228.547 203.79 228.696C204.119 228.845 204.378 229.116 204.512 229.452C204.646 229.788 204.644 230.163 204.506 230.497C203.042 233.916 200.492 236.757 197.251 238.58C194.009 240.403 190.257 241.106 186.575 240.581C186.392 240.564 186.214 240.512 186.051 240.426C185.888 240.341 185.743 240.224 185.625 240.083C185.507 239.942 185.418 239.779 185.364 239.603C185.309 239.428 185.289 239.243 185.305 239.06C185.322 238.877 185.374 238.699 185.46 238.536C185.545 238.373 185.662 238.228 185.803 238.11C185.944 237.992 186.107 237.904 186.283 237.849C186.458 237.794 186.643 237.774 186.826 237.791V237.802ZM107.66 259.912C106.095 255.666 105.986 255.9 105.986 255.571C107.42 254.994 179.377 238.569 182.485 237.891C167.673 263.818 162.277 296.62 158.633 326.301C157.096 325.667 135.328 316.84 125.837 313.048C120.563 295.524 114.545 278.589 107.66 259.912ZM45.8082 284.983C46.9242 285.374 168.041 332.74 172.05 334.816C175.744 338.164 212.569 424.807 239.178 472.363C236.033 470.535 232.771 468.919 229.413 467.525C221.654 463.775 133.9 424.146 130.719 422.486C129.037 421.456 74.9163 326.811 45.8082 284.983ZM385.22 401.631C390.46 402.574 395.31 405.031 399.17 408.698C400.855 410.378 401.914 412.584 402.171 414.949C402.428 417.314 401.868 419.696 400.585 421.699C397.703 425.499 393.847 428.448 389.425 430.234C364.17 440.735 347.541 442.415 324.493 456.541C316.739 461.363 310.059 467.728 304.868 475.241C299.677 482.754 296.087 491.254 294.319 500.212C294.187 501.3 293.95 502.373 293.613 503.415C293.285 504.085 292.79 504.66 292.176 505.084C291.562 505.508 290.849 505.767 290.106 505.837C269.448 510.614 248.305 512.969 227.102 512.857C200.651 512.515 174.476 507.431 149.819 497.846V497.81L149.8 497.735C143.383 475.055 121.479 461.973 105.564 454.105C92.4515 447.629 85.881 446.045 79.1069 439.427C77.5569 437.898 76.4351 435.989 75.8535 433.892C75.2719 431.794 75.2508 429.58 75.7924 427.471C77.5067 423.062 80.8174 419.46 85.0663 417.38C94.8062 411.8 108.438 410.422 121.705 413.474C123.002 415.656 124.305 417.849 125.611 419.961C126.388 421.488 127.344 422.917 128.459 424.218C129.29 424.843 130.206 425.347 131.179 425.714C231.039 471.088 230.289 470.463 240.388 476.191C242.489 477.382 243.134 478.57 245.631 477C249.911 474.31 265.892 463.37 341.197 422.274C354.293 415.129 353.155 415.885 356.653 413.806C356.52 414.04 356.37 414.264 356.204 414.476C355.523 415.675 356.533 416.808 357.722 415.592L357.764 415.614C359.51 413.502 361.138 411.296 362.641 409.004C362.75 408.942 362.845 408.858 362.92 408.756C363.037 408.594 366.561 403.734 368.048 401.656C373.714 400.512 379.551 400.504 385.22 401.631ZM442.415 279.83C414.825 321.387 394.767 358.648 368.759 396.452C419.637 275.23 418.326 278.084 424.219 267.206C446.539 277.456 444.368 276.334 444.65 276.594C444.028 277.752 443.28 278.839 442.421 279.833L442.415 279.83Z" fill="#282B28"/>
</svg>
