<svg width="1525" height="621" viewBox="0 0 1525 621" fill="none" xmlns="http://www.w3.org/2000/svg">
<path d="M103.576 0H93.5231C41.8717 0 0 41.7515 0 93.2546V527.745C0 579.248 41.8717 621 93.523 621H103.576C155.227 621 197.099 579.248 197.099 527.745V93.2546C197.099 41.7515 155.227 0 103.576 0Z" fill="#A24936"/>
<path d="M420.48 431.582V93.2546C420.48 41.7515 378.608 0 326.957 0H316.856C265.205 0 223.333 41.7515 223.333 93.2546V431.582C223.333 483.086 265.205 524.837 316.856 524.837H326.957C378.608 524.837 420.48 483.086 420.48 431.582Z" fill="#B56D5E"/>
<path d="M550.477 0H540.189C488.538 0 446.666 41.7515 446.666 93.2546V332.733C446.666 384.236 488.538 425.987 540.189 425.987H550.477C602.128 425.987 644 384.236 644 332.733V93.2546C644 41.7515 602.128 0 550.477 0Z" fill="#C79286"/>
<path d="M1492.14 340.706C1487.72 340.706 1483.51 340.085 1479.51 338.843C1475.65 337.601 1472.27 335.807 1469.37 333.461C1468.4 331.667 1467.71 328.838 1467.3 324.974C1466.89 321.11 1466.68 317.591 1466.68 314.417C1466.68 313.037 1467.71 312.347 1469.78 312.347C1470.61 312.347 1471.3 312.554 1471.85 312.968C1472.54 313.244 1472.96 313.658 1473.1 314.21C1475.17 320.696 1478.06 325.595 1481.79 328.907C1485.52 332.219 1489.59 333.875 1494 333.875C1497.87 333.875 1501.04 332.633 1503.52 330.149C1506.01 327.527 1507.25 324.422 1507.25 320.834C1507.25 317.108 1505.94 314.003 1503.32 311.519C1500.7 308.897 1496.69 305.93 1491.31 302.618C1486.9 299.996 1483.1 297.443 1479.93 294.959C1476.75 292.337 1474.34 289.508 1472.68 286.472C1471.03 283.298 1470.2 279.71 1470.2 275.708C1470.2 270.878 1471.37 266.6 1473.72 262.874C1476.2 259.148 1479.65 256.181 1484.07 253.973C1488.48 251.765 1493.8 250.661 1500.01 250.661C1504.42 250.661 1508.15 251.144 1511.18 252.11C1514.36 252.938 1516.64 253.835 1518.02 254.801C1519.12 256.319 1520.02 258.803 1520.71 262.253C1521.53 265.703 1521.95 269.153 1521.95 272.603C1521.95 273.707 1521.05 274.259 1519.26 274.259C1518.43 274.259 1517.53 274.052 1516.57 273.638C1515.74 273.224 1515.19 272.672 1514.91 271.982C1513.12 267.152 1510.84 263.495 1508.08 261.011C1505.46 258.527 1502.21 257.285 1498.35 257.285C1495.04 257.285 1492.07 258.32 1489.45 260.39C1486.83 262.322 1485.52 265.151 1485.52 268.877C1485.52 272.051 1486.62 274.88 1488.83 277.364C1491.17 279.71 1494.83 282.263 1499.8 285.023C1508.08 289.577 1514.15 293.924 1518.02 298.064C1522.02 302.066 1524.02 307.448 1524.02 314.21C1524.02 322.214 1521.12 328.631 1515.32 333.461C1509.67 338.291 1501.94 340.706 1492.14 340.706Z" fill="black"/>
<path d="M1432.43 341.741C1432.16 341.741 1431.67 341.396 1430.98 340.706C1430.29 340.016 1429.95 339.533 1429.95 339.257C1430.09 337.601 1430.29 335.6 1430.57 333.254C1430.85 330.908 1430.98 328.907 1430.98 327.251V326.009C1428.64 329.597 1425.12 332.978 1420.43 336.152C1415.87 339.188 1410.35 340.706 1403.87 340.706C1396 340.706 1389.17 338.705 1383.37 334.703C1377.58 330.563 1373.02 325.25 1369.71 318.764C1366.54 312.278 1364.95 305.378 1364.95 298.064C1364.95 289.646 1366.88 281.849 1370.75 274.673C1374.61 267.497 1380.13 261.77 1387.31 257.492C1394.48 253.076 1402.9 250.868 1412.56 250.868C1415.05 250.868 1417.6 251.144 1420.22 251.696C1422.98 252.11 1425.12 252.593 1426.64 253.145C1428.16 253.559 1429.05 253.766 1429.33 253.766C1430.29 253.766 1430.78 252.317 1430.78 249.419V221.888C1430.78 216.506 1429.95 212.78 1428.29 210.71C1426.64 208.64 1424.22 207.329 1421.05 206.777C1419.67 206.501 1418.98 205.535 1418.98 203.879C1418.98 202.499 1419.6 201.602 1420.84 201.188C1426.64 199.808 1431.61 198.359 1435.75 196.841C1439.89 195.323 1443.2 194.081 1445.68 193.115C1446.65 192.563 1447.41 192.287 1447.96 192.287C1448.51 192.149 1448.92 192.08 1449.2 192.08C1450.3 192.08 1450.86 192.632 1450.86 193.736C1450.86 194.15 1450.79 195.254 1450.65 197.048C1450.51 198.842 1450.3 201.395 1450.03 204.707C1449.75 208.019 1449.61 212.09 1449.61 216.92L1449.2 314.417C1449.2 319.109 1449.55 322.49 1450.24 324.56C1450.93 326.63 1452.1 327.665 1453.75 327.665C1454.44 327.665 1455.48 327.596 1456.86 327.458C1458.24 327.32 1460.1 327.182 1462.45 327.044C1464.66 326.906 1465.76 327.596 1465.76 329.114C1465.76 330.08 1465.42 331.046 1464.73 332.012C1464.04 332.84 1463.35 333.254 1462.66 333.254C1458.38 333.806 1454.03 334.634 1449.61 335.738C1445.34 336.842 1440.78 338.429 1435.95 340.499C1434.85 341.051 1434.09 341.396 1433.68 341.534C1433.26 341.672 1432.85 341.741 1432.43 341.741ZM1412.35 328.7C1415.39 328.7 1418.56 327.941 1421.88 326.423C1425.33 324.767 1428.22 322.628 1430.57 320.006V279.641C1430.57 276.467 1429.54 273.293 1427.47 270.119C1425.53 266.807 1422.84 264.185 1419.39 262.253C1415.94 260.183 1412.01 259.148 1407.59 259.148C1404.42 259.148 1401.04 260.252 1397.45 262.46C1393.86 264.53 1390.83 268.049 1388.34 273.017C1385.86 277.985 1384.62 284.678 1384.62 293.096C1384.62 300.134 1385.58 305.999 1387.51 310.691C1389.45 315.245 1391.86 318.833 1394.76 321.455C1397.8 324.077 1400.9 325.94 1404.07 327.044C1407.25 328.148 1410.01 328.7 1412.35 328.7Z" fill="black"/>
<path d="M1319.06 338.43C1317.96 338.43 1316.99 338.223 1316.16 337.809C1315.47 337.395 1315.13 336.774 1315.13 335.946C1315.13 334.842 1315.54 334.083 1316.37 333.669C1317.34 333.117 1318.37 332.703 1319.47 332.427C1322.65 331.599 1324.99 330.702 1326.51 329.736C1328.03 328.77 1328.79 327.045 1328.79 324.561V279.849C1328.79 275.709 1328.1 272.397 1326.72 269.913C1325.34 267.291 1322.92 265.704 1319.47 265.152C1318.78 265.014 1318.23 264.738 1317.82 264.324C1317.54 263.772 1317.4 263.013 1317.4 262.047C1317.4 260.391 1318.03 259.494 1319.27 259.356C1325.34 257.976 1330.51 256.182 1334.79 253.974C1339.21 251.628 1342.52 249.765 1344.73 248.385C1346.25 247.419 1347.35 246.936 1348.04 246.936C1349.14 246.936 1349.7 247.488 1349.7 248.592C1349.7 250.11 1349.49 252.525 1349.08 255.837C1348.8 259.149 1348.45 262.737 1348.04 266.601C1347.76 270.465 1347.63 274.053 1347.63 277.365V324.561C1347.63 326.769 1348.39 328.425 1349.9 329.529C1351.42 330.633 1353.77 331.599 1356.94 332.427C1358.05 332.703 1359.01 333.117 1359.84 333.669C1360.81 334.083 1361.29 334.842 1361.29 335.946C1361.29 337.602 1360.05 338.43 1357.56 338.43C1354.94 338.43 1352.59 338.292 1350.52 338.016C1348.45 337.878 1346.45 337.74 1344.52 337.602C1342.73 337.464 1340.59 337.395 1338.1 337.395C1335.76 337.395 1333.62 337.464 1331.69 337.602C1329.76 337.74 1327.82 337.878 1325.89 338.016C1324.1 338.292 1321.82 338.43 1319.06 338.43ZM1337.69 232.653C1334.24 232.653 1331.27 231.48 1328.79 229.134C1326.44 226.65 1325.27 223.683 1325.27 220.233C1325.27 216.645 1326.44 213.678 1328.79 211.332C1331.27 208.848 1334.24 207.606 1337.69 207.606C1341.28 207.606 1344.31 208.848 1346.8 211.332C1349.28 213.678 1350.52 216.645 1350.52 220.233C1350.52 223.683 1349.28 226.65 1346.8 229.134C1344.31 231.48 1341.28 232.653 1337.69 232.653Z" fill="black"/>
<path d="M1176.41 338.844C1174.75 338.844 1173.37 338.568 1172.27 338.016C1171.16 337.602 1170.61 336.912 1170.61 335.946C1170.61 334.842 1171.16 333.945 1172.27 333.255C1173.37 332.565 1174.89 331.875 1176.82 331.185C1180.55 330.081 1183.93 328.425 1186.96 326.217C1190 324.009 1192.48 320.628 1194.42 316.074C1198.14 307.656 1201.59 299.652 1204.77 292.062C1207.94 284.334 1210.98 276.744 1213.87 269.292C1216.77 261.84 1219.74 254.181 1222.77 246.315C1225.81 238.311 1228.92 229.824 1232.09 220.854C1233.33 217.68 1234.23 215.058 1234.78 212.988C1235.33 210.78 1235.68 208.848 1235.82 207.192C1237.61 206.778 1239.27 206.364 1240.78 205.95C1242.3 205.398 1243.96 204.639 1245.75 203.673C1247.41 202.845 1248.65 201.672 1249.48 200.154C1250.44 198.498 1251.2 197.325 1251.75 196.635C1252.03 196.497 1252.31 196.428 1252.58 196.428C1253 196.29 1253.34 196.497 1253.62 197.049C1254.03 197.739 1254.31 198.498 1254.45 199.326C1254.72 200.154 1255 201.051 1255.27 202.017C1258.45 212.091 1261.69 222.372 1265 232.86C1268.45 243.21 1271.83 253.353 1275.15 263.289C1278.46 273.225 1281.56 282.471 1284.46 291.027C1287.36 299.445 1289.84 306.828 1291.91 313.176C1293.43 317.73 1295.22 321.249 1297.29 323.733C1299.36 326.079 1301.57 327.873 1303.92 329.115C1306.26 330.219 1308.82 331.047 1311.58 331.599C1313.65 332.013 1315.17 332.634 1316.13 333.462C1317.24 334.29 1317.79 335.256 1317.79 336.36C1317.79 337.188 1317.24 337.74 1316.13 338.016C1315.17 338.43 1313.92 338.637 1312.41 338.637C1310.2 338.637 1307.3 338.499 1303.71 338.223C1300.12 338.085 1296.4 337.947 1292.53 337.809C1288.67 337.671 1285.15 337.602 1281.98 337.602C1279.35 337.602 1276.46 337.602 1273.28 337.602C1270.11 337.602 1267.07 337.671 1264.17 337.809C1261.41 337.947 1259 338.016 1256.93 338.016C1255.27 338.016 1253.89 337.809 1252.79 337.395C1251.82 336.843 1251.34 336.153 1251.34 335.325C1251.34 334.221 1251.96 333.324 1253.2 332.634C1254.45 331.944 1255.89 331.461 1257.55 331.185C1262.24 330.357 1265.62 329.115 1267.69 327.459C1269.9 325.803 1270.8 323.595 1270.38 320.835C1270.25 318.489 1269.76 315.591 1268.94 312.141C1268.11 308.553 1267.14 304.827 1266.04 300.963C1264.93 296.961 1263.9 293.304 1262.93 289.992C1262.66 288.888 1262.17 288.198 1261.48 287.922C1260.79 287.646 1259.62 287.508 1257.96 287.508H1219.67C1218.98 287.508 1218.36 287.784 1217.81 288.336C1217.25 288.75 1216.7 289.647 1216.15 291.027C1215.74 292.683 1215.05 294.822 1214.08 297.444C1213.25 299.928 1212.42 302.619 1211.6 305.517C1210.77 308.277 1210.01 310.899 1209.32 313.383C1208.77 315.729 1208.42 317.454 1208.28 318.558C1207.87 322.008 1208.7 324.768 1210.77 326.838C1212.98 328.77 1216.22 330.288 1220.5 331.392C1224.64 332.496 1226.71 333.876 1226.71 335.532C1226.71 336.498 1226.16 337.188 1225.05 337.602C1224.09 337.878 1222.77 338.016 1221.12 338.016C1218.5 338.016 1215.46 337.947 1212.01 337.809C1208.56 337.671 1204.9 337.602 1201.04 337.602C1196.62 337.602 1192.35 337.809 1188.21 338.223C1184.07 338.637 1180.13 338.844 1176.41 338.844ZM1225.47 279.021H1255.69C1257.62 279.021 1258.59 278.676 1258.59 277.986C1258.59 277.572 1258.52 277.227 1258.38 276.951C1258.38 276.675 1258.31 276.261 1258.17 275.709L1242.85 226.65C1242.16 224.442 1241.61 223.338 1241.2 223.338C1240.92 223.338 1240.44 224.373 1239.75 226.443L1221.74 275.709C1221.46 276.537 1221.33 277.089 1221.33 277.365C1221.33 278.055 1221.67 278.538 1222.36 278.814C1223.19 278.952 1224.22 279.021 1225.47 279.021Z" fill="black"/>
<path d="M1124.85 303.033C1123.88 303.033 1123.4 302.55 1123.4 301.584C1123.4 298.548 1123.75 295.857 1124.44 293.511C1125.13 291.165 1126.02 289.923 1127.13 289.785C1134.03 288.681 1141.07 287.646 1148.24 286.68C1155.42 285.714 1162.46 284.955 1169.36 284.403C1170.18 284.265 1170.74 284.403 1171.01 284.817C1171.43 285.093 1171.63 285.576 1171.63 286.266C1171.63 289.302 1171.29 291.855 1170.6 293.925C1170.05 295.995 1168.94 297.168 1167.29 297.444C1160.66 298.548 1153.76 299.583 1146.59 300.549C1139.41 301.515 1132.16 302.343 1124.85 303.033Z" fill="black"/>
<path d="M1089.36 341.741C1089.09 341.741 1088.6 341.396 1087.91 340.706C1087.22 340.016 1086.88 339.533 1086.88 339.257C1087.02 337.601 1087.22 335.6 1087.5 333.254C1087.78 330.908 1087.91 328.907 1087.91 327.251V326.009C1085.57 329.597 1082.05 332.978 1077.36 336.152C1072.8 339.188 1067.28 340.706 1060.8 340.706C1052.93 340.706 1046.1 338.705 1040.3 334.703C1034.51 330.563 1029.95 325.25 1026.64 318.764C1023.47 312.278 1021.88 305.378 1021.88 298.064C1021.88 289.646 1023.81 281.849 1027.68 274.673C1031.54 267.497 1037.06 261.77 1044.24 257.492C1051.41 253.076 1059.83 250.868 1069.49 250.868C1071.98 250.868 1074.53 251.144 1077.15 251.696C1079.91 252.11 1082.05 252.593 1083.57 253.145C1085.09 253.559 1085.98 253.766 1086.26 253.766C1087.22 253.766 1087.71 252.317 1087.71 249.419V221.888C1087.71 216.506 1086.88 212.78 1085.22 210.71C1083.57 208.64 1081.15 207.329 1077.98 206.777C1076.6 206.501 1075.91 205.535 1075.91 203.879C1075.91 202.499 1076.53 201.602 1077.77 201.188C1083.57 199.808 1088.54 198.359 1092.68 196.841C1096.82 195.323 1100.13 194.081 1102.61 193.115C1103.58 192.563 1104.34 192.287 1104.89 192.287C1105.44 192.149 1105.85 192.08 1106.13 192.08C1107.23 192.08 1107.79 192.632 1107.79 193.736C1107.79 194.15 1107.72 195.254 1107.58 197.048C1107.44 198.842 1107.23 201.395 1106.96 204.707C1106.68 208.019 1106.54 212.09 1106.54 216.92L1106.13 314.417C1106.13 319.109 1106.48 322.49 1107.17 324.56C1107.86 326.63 1109.03 327.665 1110.68 327.665C1111.37 327.665 1112.41 327.596 1113.79 327.458C1115.17 327.32 1117.03 327.182 1119.38 327.044C1121.59 326.906 1122.69 327.596 1122.69 329.114C1122.69 330.08 1122.35 331.046 1121.66 332.012C1120.97 332.84 1120.28 333.254 1119.59 333.254C1115.31 333.806 1110.96 334.634 1106.54 335.738C1102.27 336.842 1097.71 338.429 1092.88 340.499C1091.78 341.051 1091.02 341.396 1090.61 341.534C1090.19 341.672 1089.78 341.741 1089.36 341.741ZM1069.28 328.7C1072.32 328.7 1075.49 327.941 1078.81 326.423C1082.26 324.767 1085.15 322.628 1087.5 320.006V279.641C1087.5 276.467 1086.47 273.293 1084.4 270.119C1082.46 266.807 1079.77 264.185 1076.32 262.253C1072.87 260.183 1068.94 259.148 1064.52 259.148C1061.35 259.148 1057.97 260.252 1054.38 262.46C1050.79 264.53 1047.76 268.049 1045.27 273.017C1042.79 277.985 1041.55 284.678 1041.55 293.096C1041.55 300.134 1042.51 305.999 1044.44 310.691C1046.38 315.245 1048.79 318.833 1051.69 321.455C1054.73 324.077 1057.83 325.94 1061 327.044C1064.18 328.148 1066.94 328.7 1069.28 328.7Z" fill="black"/>
<path d="M918.585 338.43C917.481 338.43 916.515 338.223 915.687 337.809C914.859 337.395 914.445 336.774 914.445 335.946C914.445 334.842 914.859 334.083 915.687 333.669C916.653 333.117 917.826 332.634 919.206 332.22C921.276 331.668 923.208 330.909 925.002 329.943C926.796 328.977 927.693 327.114 927.693 324.354V278.814C927.693 275.364 927.279 272.466 926.451 270.12C925.761 267.636 923.76 265.98 920.448 265.152C919.896 265.014 919.413 264.738 918.999 264.324C918.585 263.772 918.378 263.082 918.378 262.254C918.378 260.46 918.999 259.494 920.241 259.356C925.071 258.114 929.418 256.596 933.282 254.802C937.284 253.008 940.941 251.007 944.253 248.799C944.667 248.523 945.081 248.247 945.495 247.971C946.047 247.695 946.53 247.557 946.944 247.557C947.496 247.557 947.841 247.764 947.979 248.178C948.255 248.454 948.393 248.868 948.393 249.42C948.393 250.386 948.186 252.249 947.772 255.009C947.496 257.769 947.358 260.115 947.358 262.047C947.358 262.599 947.358 263.151 947.358 263.703C947.496 264.255 947.634 264.6 947.772 264.738C952.602 260.184 957.57 256.734 962.676 254.388C967.92 252.042 973.785 250.869 980.271 250.869C987.171 250.869 992.898 253.56 997.452 258.942C1002.01 264.324 1004.28 271.293 1004.28 279.849V324.561C1004.28 327.321 1005.18 329.115 1006.97 329.943C1008.91 330.771 1010.91 331.53 1012.98 332.22C1014.08 332.634 1015.12 333.117 1016.08 333.669C1017.05 334.221 1017.53 335.049 1017.53 336.153C1017.53 337.119 1017.05 337.74 1016.08 338.016C1015.25 338.292 1014.43 338.43 1013.6 338.43C1010.84 338.43 1008.49 338.292 1006.56 338.016C1004.77 337.878 1002.97 337.74 1001.18 337.602C999.522 337.464 997.452 337.395 994.968 337.395C992.622 337.395 990.552 337.464 988.758 337.602C986.964 337.74 985.101 337.878 983.169 338.016C981.375 338.292 979.098 338.43 976.338 338.43C975.648 338.43 974.82 338.292 973.854 338.016C972.888 337.74 972.405 337.119 972.405 336.153C972.405 335.049 972.888 334.221 973.854 333.669C974.82 333.117 975.855 332.634 976.959 332.22C979.029 331.53 980.961 330.771 982.755 329.943C984.549 329.115 985.446 327.321 985.446 324.561V281.712C985.446 275.916 983.859 271.431 980.685 268.257C977.649 265.083 973.647 263.427 968.679 263.289C964.401 263.289 960.606 263.979 957.294 265.359C954.12 266.601 951.153 268.326 948.393 270.534C947.841 271.086 947.427 271.776 947.151 272.604C946.875 273.432 946.737 274.191 946.737 274.881V324.561C946.737 327.321 947.634 329.184 949.428 330.15C951.222 330.978 953.085 331.668 955.017 332.22C958.053 333.186 959.571 334.428 959.571 335.946C959.571 336.774 959.226 337.395 958.536 337.809C957.846 338.223 956.88 338.43 955.638 338.43C952.878 338.43 950.532 338.292 948.6 338.016C946.806 337.878 945.081 337.74 943.425 337.602C941.907 337.464 939.906 337.395 937.422 337.395C935.076 337.395 933.006 337.464 931.212 337.602C929.418 337.74 927.555 337.878 925.623 338.016C923.691 338.292 921.345 338.43 918.585 338.43Z" fill="black"/>
<path d="M855.432 340.707C852.534 340.707 849.705 339.741 846.945 337.809C844.185 336.015 841.908 333.738 840.114 330.978C838.32 328.08 837.423 325.251 837.423 322.491C837.423 317.937 838.665 314.28 841.149 311.52C843.771 308.76 847.773 306.276 853.155 304.068L873.234 295.581C875.994 294.477 877.65 293.511 878.202 292.683C878.754 291.717 879.099 289.854 879.237 287.094L879.651 274.467C879.789 270.741 878.892 267.636 876.96 265.152C875.028 262.668 872.199 261.426 868.473 261.426C866.541 261.426 864.54 261.84 862.47 262.668C860.538 263.358 858.951 264.186 857.709 265.152C857.019 265.704 856.536 266.463 856.26 267.429C856.122 268.395 856.053 269.43 856.053 270.534C856.053 271.224 856.053 272.052 856.053 273.018C856.191 273.846 856.26 274.536 856.26 275.088C856.26 275.916 855.294 276.951 853.362 278.193C851.568 279.297 849.429 280.332 846.945 281.298C844.599 282.264 842.598 282.747 840.942 282.747C840.114 282.747 839.424 282.54 838.872 282.126C838.458 281.574 838.251 280.884 838.251 280.056C838.251 277.848 838.941 275.571 840.321 273.225C841.839 270.741 844.047 268.257 846.945 265.773C850.257 262.875 853.845 260.322 857.709 258.114C861.711 255.768 865.575 253.974 869.301 252.732C873.165 251.49 876.546 250.869 879.444 250.869C885.24 250.869 889.932 252.87 893.52 256.872C897.246 260.736 898.971 265.773 898.695 271.983L897.66 318.765C897.522 321.801 898.143 324.285 899.523 326.217C900.903 328.149 902.628 329.115 904.698 329.115C907.872 329.115 910.356 328.287 912.15 326.631C912.702 326.079 913.185 325.803 913.599 325.803C914.289 325.803 914.841 326.01 915.255 326.424C915.807 326.838 916.083 327.39 916.083 328.08C916.083 329.736 915.117 331.461 913.185 333.255C910.839 335.601 908.286 337.395 905.526 338.637C902.904 340.017 900.351 340.707 897.867 340.707C890.967 340.707 885.447 336.981 881.307 329.529H880.686C876.132 333.393 871.854 336.222 867.852 338.016C863.85 339.81 859.71 340.707 855.432 340.707ZM866.196 329.529C868.542 329.529 870.474 329.184 871.992 328.494C873.648 327.666 875.097 326.562 876.339 325.182C877.029 324.492 877.512 323.664 877.788 322.698C878.202 321.594 878.478 319.938 878.616 317.73L879.03 305.931C879.168 304.551 879.099 303.585 878.823 303.033C878.547 302.343 877.995 301.998 877.167 301.998C876.891 301.998 876.477 302.067 875.925 302.205C875.373 302.343 874.614 302.619 873.648 303.033C867.438 305.379 863.091 307.863 860.607 310.485C858.123 312.969 856.881 315.729 856.881 318.765C856.881 322.491 857.847 325.251 859.779 327.045C861.849 328.701 863.988 329.529 866.196 329.529Z" fill="black"/>
<path d="M721.382 338.844C719.726 338.844 718.415 338.637 717.449 338.223C716.483 337.809 716 337.188 716 336.36C716 334.566 718.001 333.255 722.003 332.427C727.109 331.323 730.904 329.805 733.388 327.873C735.872 325.803 737.114 322.353 737.114 317.523V223.959C737.114 219.267 736.148 215.817 734.216 213.609C732.284 211.401 728.765 209.952 723.659 209.262C721.589 208.986 720.071 208.503 719.105 207.813C718.139 206.985 717.656 206.088 717.656 205.122C717.656 204.294 718.139 203.673 719.105 203.259C720.071 202.707 721.382 202.431 723.038 202.431C727.04 202.431 730.214 202.5 732.56 202.638C734.906 202.776 737.114 202.914 739.184 203.052C741.392 203.052 743.945 203.052 746.843 203.052C749.741 203.052 752.225 202.983 754.295 202.845C756.503 202.569 758.918 202.362 761.54 202.224C764.3 201.948 767.819 201.81 772.097 201.81C788.381 201.81 800.594 204.156 808.736 208.848C816.878 213.402 820.949 221.337 820.949 232.653C820.949 237.207 820.052 241.278 818.258 244.866C816.602 248.454 814.739 251.214 812.669 253.146C810.461 255.216 808.322 256.872 806.252 258.114C804.32 259.356 801.698 260.529 798.386 261.633C797.834 261.771 797.558 262.116 797.558 262.668C797.558 263.082 797.834 263.427 798.386 263.703C801.698 264.669 805.079 265.911 808.529 267.429C812.117 268.809 815.498 270.741 818.672 273.225C821.846 275.571 824.33 278.745 826.124 282.747C828.056 286.611 829.022 291.579 829.022 297.651C829.022 305.241 827.78 311.313 825.296 315.867C822.95 320.283 820.121 323.664 816.809 326.01C813.497 328.356 810.392 330.288 807.494 331.806C803.078 334.014 798.041 335.739 792.383 336.981C786.725 338.085 779.894 338.637 771.89 338.637C769.13 338.637 765.749 338.499 761.747 338.223C757.883 337.947 753.674 337.809 749.12 337.809C745.808 337.809 742.703 337.878 739.805 338.016C737.045 338.154 734.216 338.292 731.318 338.43C728.42 338.706 725.108 338.844 721.382 338.844ZM773.753 329.115C779.273 329.115 784.31 327.804 788.864 325.182C793.556 322.56 797.282 318.972 800.042 314.418C802.94 309.726 804.389 304.551 804.389 298.893C804.389 293.649 803.561 289.371 801.905 286.059C800.387 282.609 798.593 279.849 796.523 277.779C794.453 275.709 792.59 274.191 790.934 273.225C789.278 272.121 786.725 271.017 783.275 269.913C779.825 268.809 775.34 268.257 769.82 268.257C766.232 268.257 763.472 269.016 761.54 270.534C759.746 272.052 758.849 273.708 758.849 275.502V315.039C758.849 320.283 760.16 323.94 762.782 326.01C765.404 328.08 769.061 329.115 773.753 329.115ZM767.957 261.219C771.545 261.219 775.202 260.805 778.928 259.977C782.792 259.149 786.587 257.562 790.313 255.216C791.693 254.388 793.418 252.456 795.488 249.42C797.558 246.246 798.593 241.761 798.593 235.965C798.593 231.273 797.834 226.926 796.316 222.924C794.936 218.784 792.245 215.472 788.243 212.988C784.379 210.366 778.79 209.055 771.476 209.055C766.508 209.055 763.127 209.814 761.333 211.332C759.677 212.85 758.849 215.127 758.849 218.163V253.56C758.849 256.872 759.953 259.011 762.161 259.977C764.369 260.805 766.301 261.219 767.957 261.219Z" fill="black"/>
<path d="M1282.33 146.763C1281.09 146.763 1280.05 146.556 1279.23 146.142C1278.54 145.728 1278.19 145.107 1278.19 144.279C1278.19 143.175 1278.61 142.416 1279.43 142.002C1280.26 141.45 1281.3 141.036 1282.54 140.76C1285.99 139.932 1288.33 138.897 1289.58 137.655C1290.82 136.413 1291.44 134.481 1291.44 131.859V73.278C1290.06 73.278 1288.47 73.278 1286.68 73.278C1284.88 73.14 1282.88 73.002 1280.68 72.864C1280.12 72.726 1279.5 72.174 1278.81 71.208C1278.12 70.104 1277.78 69.138 1277.78 68.31C1277.78 68.034 1277.98 67.758 1278.4 67.482C1278.81 67.206 1279.16 66.999 1279.43 66.861C1281.64 65.757 1283.64 64.791 1285.44 63.963C1287.37 62.997 1289.37 62.031 1291.44 61.065C1291.72 49.335 1293.44 39.537 1296.61 31.671C1299.79 23.805 1303.79 17.595 1308.62 13.041C1313.59 8.349 1318.76 5.037 1324.15 3.105C1329.67 1.035 1334.84 0 1339.67 0C1347.95 0 1354.02 1.242 1357.89 3.726C1361.89 6.072 1363.89 9.384 1363.89 13.662C1363.89 16.56 1363.2 18.837 1361.82 20.493C1360.44 22.011 1358.65 22.77 1356.44 22.77C1355.2 22.77 1354.02 22.287 1352.92 21.321C1351.81 20.217 1350.57 18.975 1349.19 17.595C1347.26 15.525 1344.85 13.593 1341.95 11.799C1339.19 9.867 1335.53 8.90099 1330.98 8.90099C1324.77 8.90099 1319.8 11.592 1316.07 16.974C1312.35 22.218 1310.48 30.498 1310.48 41.814V59.616C1310.48 60.582 1310.76 61.203 1311.31 61.479C1311.86 61.755 1312.48 61.893 1313.17 61.893H1338.01C1338.84 61.893 1339.53 62.169 1340.08 62.721C1340.64 63.273 1340.91 63.894 1340.91 64.584C1340.91 65.688 1340.77 66.861 1340.5 68.103C1340.36 69.207 1340.08 70.173 1339.67 71.001C1339.12 72.105 1338.5 72.657 1337.81 72.657H1315.66C1313.45 72.657 1312 73.002 1311.31 73.692C1310.76 74.244 1310.48 75.072 1310.48 76.176V130.617C1310.48 133.653 1311.31 135.861 1312.97 137.241C1314.76 138.621 1318.49 139.725 1324.15 140.553C1327.04 141.105 1328.49 142.278 1328.49 144.072C1328.49 144.9 1328.15 145.59 1327.46 146.142C1326.77 146.556 1325.87 146.763 1324.77 146.763C1320.63 146.763 1316.56 146.556 1312.55 146.142C1308.69 145.866 1304.96 145.728 1301.38 145.728C1299.03 145.728 1296.89 145.797 1294.96 145.935C1293.16 146.073 1291.3 146.211 1289.37 146.349C1287.44 146.625 1285.09 146.763 1282.33 146.763Z" fill="black"/>
<path d="M1225.19 149.04C1217.32 149.04 1210.15 147.246 1203.66 143.658C1197.31 139.932 1192.28 134.895 1188.55 128.547C1184.82 122.199 1182.96 114.954 1182.96 106.812C1182.96 100.74 1184.13 94.8746 1186.48 89.2166C1188.83 83.5586 1192.14 78.4526 1196.42 73.8986C1200.69 69.3446 1205.66 65.7566 1211.32 63.1346C1216.98 60.3746 1223.05 58.9946 1229.54 58.9946C1237.68 58.9946 1245.06 60.9956 1251.69 64.9976C1258.31 68.8616 1263.55 73.9676 1267.42 80.3156C1271.28 86.6636 1273.21 93.6326 1273.21 101.223C1273.21 109.503 1271.42 117.3 1267.83 124.614C1264.24 131.928 1258.86 137.862 1251.69 142.416C1244.65 146.832 1235.82 149.04 1225.19 149.04ZM1229.54 141.795C1233.54 141.795 1237.13 141.036 1240.3 139.518C1243.47 137.862 1245.96 135.378 1247.75 132.066C1249.41 128.892 1250.51 125.028 1251.06 120.474C1251.75 115.782 1252.1 111.021 1252.1 106.191C1252.1 99.2906 1251 92.8046 1248.79 86.7326C1246.58 80.6606 1243.54 75.7616 1239.68 72.0356C1235.82 68.3096 1231.26 66.4466 1226.02 66.4466C1222.84 66.4466 1219.95 66.9986 1217.32 68.1026C1214.84 69.0686 1212.56 70.7936 1210.49 73.2776C1207.87 76.4516 1206.15 80.5916 1205.32 85.6976C1204.49 90.6656 1204.08 96.1166 1204.08 102.051C1204.08 108.675 1205.18 115.023 1207.39 121.095C1209.6 127.167 1212.56 132.135 1216.29 135.999C1220.15 139.863 1224.57 141.795 1229.54 141.795Z" fill="black"/>
<path d="M1110.44 150.075C1110.17 150.075 1109.68 149.73 1108.99 149.04C1108.3 148.35 1107.96 147.867 1107.96 147.591C1108.1 145.935 1108.3 143.934 1108.58 141.588C1108.86 139.242 1108.99 137.241 1108.99 135.585V134.343C1106.65 137.931 1103.13 141.312 1098.44 144.486C1093.88 147.522 1088.36 149.04 1081.88 149.04C1074.01 149.04 1067.18 147.039 1061.38 143.037C1055.59 138.897 1051.03 133.584 1047.72 127.098C1044.55 120.612 1042.96 113.712 1042.96 106.398C1042.96 97.9797 1044.89 90.1827 1048.76 83.0067C1052.62 75.8307 1058.14 70.1037 1065.32 65.8257C1072.49 61.4097 1080.91 59.2017 1090.57 59.2017C1093.06 59.2017 1095.61 59.4777 1098.23 60.0297C1100.99 60.4437 1103.13 60.9267 1104.65 61.4787C1106.17 61.8927 1107.06 62.0997 1107.34 62.0997C1108.3 62.0997 1108.79 60.6507 1108.79 57.7527V30.2217C1108.79 24.8397 1107.96 21.1137 1106.3 19.0437C1104.65 16.9737 1102.23 15.6627 1099.06 15.1107C1097.68 14.8347 1096.99 13.8687 1096.99 12.2127C1096.99 10.8327 1097.61 9.93571 1098.85 9.5217C1104.65 8.1417 1109.62 6.6927 1113.76 5.1747C1117.9 3.6567 1121.21 2.4147 1123.69 1.4487C1124.66 0.896703 1125.42 0.620705 1125.97 0.620705C1126.52 0.482699 1126.93 0.413696 1127.21 0.413696C1128.31 0.413696 1128.87 0.965696 1128.87 2.0697C1128.87 2.4837 1128.8 3.58771 1128.66 5.38171C1128.52 7.1757 1128.31 9.7287 1128.04 13.0407C1127.76 16.3527 1127.62 20.4237 1127.62 25.2537L1127.21 122.751C1127.21 127.443 1127.56 130.824 1128.25 132.894C1128.94 134.964 1130.11 135.999 1131.76 135.999C1132.45 135.999 1133.49 135.93 1134.87 135.792C1136.25 135.654 1138.11 135.516 1140.46 135.378C1142.67 135.24 1143.77 135.93 1143.77 137.448C1143.77 138.414 1143.43 139.38 1142.74 140.346C1142.05 141.174 1141.36 141.588 1140.67 141.588C1136.39 142.14 1132.04 142.968 1127.62 144.072C1123.35 145.176 1118.79 146.763 1113.96 148.833C1112.86 149.385 1112.1 149.73 1111.69 149.868C1111.27 150.006 1110.86 150.075 1110.44 150.075ZM1090.36 137.034C1093.4 137.034 1096.57 136.275 1099.89 134.757C1103.34 133.101 1106.23 130.962 1108.58 128.34V87.9747C1108.58 84.8007 1107.55 81.6267 1105.48 78.4527C1103.54 75.1407 1100.85 72.5187 1097.4 70.5867C1093.95 68.5167 1090.02 67.4817 1085.6 67.4817C1082.43 67.4817 1079.05 68.5857 1075.46 70.7937C1071.87 72.8637 1068.84 76.3827 1066.35 81.3507C1063.87 86.3187 1062.63 93.0117 1062.63 101.43C1062.63 108.468 1063.59 114.333 1065.52 119.025C1067.46 123.579 1069.87 127.167 1072.77 129.789C1075.81 132.411 1078.91 134.274 1082.08 135.378C1085.26 136.482 1088.02 137.034 1090.36 137.034Z" fill="black"/>
<path d="M1005.17 149.247C997.72 149.247 991.097 147.384 985.301 143.658C979.643 139.794 975.157 134.481 971.845 127.719C968.533 120.819 966.878 112.884 966.878 103.914C966.878 95.7724 968.741 88.3204 972.467 81.5584C976.331 74.7964 981.437 69.4144 987.785 65.4124C994.133 61.2724 1001.1 59.2024 1008.69 59.2024C1014.35 59.2024 1019.39 60.3754 1023.8 62.7214C1028.36 64.9294 1031.88 68.1034 1034.36 72.2434C1036.98 76.2454 1038.29 80.8684 1038.29 86.1124C1038.29 90.6664 1036.15 92.9434 1031.88 92.9434H989.027C987.095 92.9434 985.714 93.4954 984.886 94.5994C984.058 95.7034 983.645 97.7044 983.645 100.602C983.645 106.674 985.025 112.263 987.785 117.369C990.545 122.337 994.202 126.339 998.756 129.375C1003.31 132.411 1008.35 133.929 1013.87 133.929C1018.01 133.929 1021.73 133.17 1025.04 131.652C1028.49 129.996 1031.67 127.719 1034.57 124.821C1034.98 124.269 1035.33 123.855 1035.6 123.579C1036.02 123.303 1036.43 123.165 1036.84 123.165C1038.09 123.165 1038.71 123.924 1038.71 125.442C1038.71 127.65 1037.74 130.272 1035.81 133.308C1033.88 136.206 1031.39 138.897 1028.36 141.381C1025.46 143.727 1022.01 145.59 1018.01 146.97C1014.14 148.488 1009.86 149.247 1005.17 149.247ZM989.234 85.9054H1005.79C1009.38 85.9054 1012.21 85.8364 1014.28 85.6984C1016.35 85.5604 1018.28 85.2844 1020.08 84.8704C1020.77 84.5944 1021.25 84.0424 1021.53 83.2144C1021.8 82.2484 1021.94 81.0754 1021.94 79.6954C1021.94 75.8314 1020.35 72.5884 1017.18 69.9664C1014 67.2064 1010.21 65.8264 1005.79 65.8264C1002.76 65.8264 999.722 66.7234 996.686 68.5174C993.788 70.3114 991.373 72.5884 989.441 75.3484C987.509 77.9704 986.611 80.6614 986.749 83.4214C986.749 85.0774 987.578 85.9054 989.234 85.9054Z" fill="black"/>
<path d="M902.832 146.763C901.59 146.763 900.555 146.556 899.727 146.142C899.037 145.728 898.692 145.107 898.692 144.279C898.692 143.175 899.106 142.416 899.934 142.002C900.9 141.45 902.073 140.967 903.453 140.553C906.351 139.863 908.352 138.897 909.456 137.655C910.698 136.413 911.319 134.757 911.319 132.687V87.1472C911.319 83.6972 910.836 80.7992 909.87 78.4532C908.904 75.9692 906.834 74.3822 903.66 73.6922C903.108 73.5542 902.556 73.2092 902.004 72.6572C901.59 72.1052 901.383 71.4152 901.383 70.5872C901.383 69.0692 902.073 68.1032 903.453 67.6892C907.317 66.5852 911.457 65.0672 915.873 63.1352C920.289 61.0652 923.877 59.2712 926.637 57.7532C927.465 57.2012 928.224 56.7872 928.914 56.5112C929.604 56.2352 930.087 56.0972 930.363 56.0972C931.329 56.0972 931.812 56.6492 931.812 57.7532C931.812 58.3052 931.743 59.4782 931.605 61.2722C931.605 63.0662 931.536 65.0672 931.398 67.2752C931.26 69.4832 931.191 71.6222 931.191 73.6922C931.191 74.2442 931.329 74.5202 931.605 74.5202C933.813 71.7602 936.228 69.2072 938.85 66.8612C941.61 64.5152 944.508 62.6522 947.544 61.2722C950.58 59.7542 953.478 58.9952 956.238 58.9952C959.826 58.9952 962.586 59.7542 964.518 61.2722C966.45 62.6522 967.416 64.5152 967.416 66.8612C967.416 68.3792 966.933 70.1732 965.967 72.2432C965.139 74.1752 963.966 75.9002 962.448 77.4182C961.068 78.7982 959.55 79.4882 957.894 79.4882C956.928 79.4882 955.893 79.2812 954.789 78.8672C953.685 78.3152 952.512 77.7632 951.27 77.2112C950.166 76.6592 948.993 76.1762 947.751 75.7622C946.647 75.2102 945.543 74.9342 944.439 74.9342C940.989 74.9342 937.815 76.1762 934.917 78.6602C932.019 81.1442 930.57 85.9742 930.57 93.1502V132.066C930.57 134.274 931.467 135.999 933.261 137.241C935.055 138.483 937.746 139.656 941.334 140.76C942.852 141.174 944.025 141.657 944.853 142.209C945.681 142.623 946.095 143.313 946.095 144.279C946.095 145.935 944.784 146.763 942.162 146.763C938.022 146.763 934.434 146.556 931.398 146.142C928.5 145.866 925.257 145.728 921.669 145.728C919.323 145.728 917.253 145.797 915.459 145.935C913.665 146.073 911.802 146.211 909.87 146.349C907.938 146.625 905.592 146.763 902.832 146.763Z" fill="black"/>
<path d="M853.836 146.763C852.732 146.763 851.766 146.556 850.938 146.142C850.248 145.728 849.903 145.107 849.903 144.279C849.903 143.175 850.317 142.416 851.145 142.002C852.111 141.45 853.146 141.036 854.25 140.76C857.424 139.932 859.77 139.035 861.288 138.069C862.806 137.103 863.565 135.378 863.565 132.894V88.1818C863.565 84.0418 862.875 80.7298 861.495 78.2458C860.115 75.6238 857.7 74.0368 854.25 73.4848C853.56 73.3468 853.008 73.0708 852.594 72.6568C852.318 72.1048 852.18 71.3458 852.18 70.3798C852.18 68.7238 852.801 67.8268 854.043 67.6888C860.115 66.3088 865.29 64.5148 869.568 62.3068C873.984 59.9608 877.296 58.0978 879.504 56.7178C881.022 55.7518 882.126 55.2688 882.816 55.2688C883.92 55.2688 884.472 55.8208 884.472 56.9248C884.472 58.4428 884.265 60.8578 883.851 64.1698C883.575 67.4818 883.23 71.0698 882.816 74.9338C882.54 78.7978 882.402 82.3858 882.402 85.6978V132.894C882.402 135.102 883.161 136.758 884.679 137.862C886.197 138.966 888.543 139.932 891.717 140.76C892.821 141.036 893.787 141.45 894.615 142.002C895.581 142.416 896.064 143.175 896.064 144.279C896.064 145.935 894.822 146.763 892.338 146.763C889.716 146.763 887.37 146.625 885.3 146.349C883.23 146.211 881.229 146.073 879.297 145.935C877.503 145.797 875.364 145.728 872.88 145.728C870.534 145.728 868.395 145.797 866.463 145.935C864.531 146.073 862.599 146.211 860.667 146.349C858.873 146.625 856.596 146.763 853.836 146.763ZM872.466 40.9858C869.016 40.9858 866.049 39.8128 863.565 37.4668C861.219 34.9828 860.046 32.0158 860.046 28.5658C860.046 24.9778 861.219 22.0108 863.565 19.6648C866.049 17.1808 869.016 15.9388 872.466 15.9388C876.054 15.9388 879.09 17.1808 881.574 19.6648C884.058 22.0108 885.3 24.9778 885.3 28.5658C885.3 32.0158 884.058 34.9828 881.574 37.4668C879.09 39.8128 876.054 40.9858 872.466 40.9858Z" fill="black"/>
<path d="M755.951 146.97C754.433 146.97 753.122 146.763 752.018 146.349C750.914 146.073 750.362 145.452 750.362 144.486C750.362 143.52 750.914 142.761 752.018 142.209C753.122 141.519 754.64 140.967 756.572 140.553C761.816 139.587 765.749 138 768.371 135.792C770.993 133.584 772.304 130.065 772.304 125.235V43.2632C772.304 37.1912 772.166 32.6372 771.89 29.6012C771.614 26.4272 771.2 24.2882 770.648 23.1842C770.096 21.9422 769.337 21.1832 768.371 20.9072C766.715 20.4932 764.852 20.2862 762.782 20.2862C760.712 20.1482 758.297 20.0792 755.537 20.0792H747.464C743.876 20.0792 740.288 20.9072 736.7 22.5632C733.25 24.0812 730.628 26.2892 728.834 29.1872C728.282 30.0152 727.454 31.1882 726.35 32.7062C725.384 34.0862 724.28 35.3282 723.038 36.4322C721.796 37.3982 720.554 37.8812 719.312 37.8812C718.622 37.8812 718.07 37.6052 717.656 37.0532C717.38 36.5012 717.242 35.8112 717.242 34.9832C717.242 33.4652 717.656 31.9472 718.484 30.4292C720.692 26.0132 722.279 22.1492 723.245 18.8372C724.211 15.5252 724.97 11.5922 725.522 7.03819C725.798 4.83019 726.35 3.45019 727.178 2.89819C728.006 2.34619 728.834 2.07019 729.662 2.07019C730.352 2.07019 731.249 2.96719 732.353 4.76119C733.595 6.4172 734.561 7.79719 735.251 8.90119C736.355 10.1432 738.425 11.1092 741.461 11.7992C744.497 12.4892 747.326 12.8342 749.948 12.8342L824.675 12.6272C828.953 12.6272 832.472 12.3512 835.232 11.7992C838.13 11.2472 840.476 10.5572 842.27 9.72919C844.202 8.7632 845.72 7.7282 846.824 6.62419C847.928 5.38219 849.377 4.76119 851.171 4.76119C851.723 4.76119 852.137 5.24419 852.413 6.21019C852.689 7.03819 852.827 8.00419 852.827 9.10819C852.827 9.66019 852.758 10.4882 852.62 11.5922C852.482 12.6962 852.344 13.5932 852.206 14.2832C851.654 16.9052 851.102 18.9752 850.55 20.4932C850.136 22.0112 849.791 23.4602 849.515 24.8402C849.377 26.0822 849.308 27.7382 849.308 29.8082V32.7062C849.308 34.3622 849.032 35.9492 848.48 37.4672C847.928 38.9852 847.1 39.7442 845.996 39.7442C844.892 39.7442 843.995 39.0542 843.305 37.6742C842.615 36.1562 841.925 34.0172 841.235 31.2572C840.407 27.6692 838.544 24.9092 835.646 22.9772C832.886 21.0452 828.263 20.0792 821.777 20.0792H804.389C801.629 20.0792 799.49 20.5622 797.972 21.5282C796.454 22.3562 795.419 24.4262 794.867 27.7382C794.453 30.9122 794.246 36.0872 794.246 43.2632V125.235C794.246 129.927 795.557 133.377 798.179 135.585C800.939 137.793 804.941 139.449 810.185 140.553C812.117 140.967 813.566 141.45 814.532 142.002C815.636 142.554 816.188 143.382 816.188 144.486C816.188 145.314 815.705 145.935 814.739 146.349C813.773 146.763 812.462 146.97 810.806 146.97C807.356 146.97 804.182 146.832 801.284 146.556C798.386 146.418 795.557 146.28 792.797 146.142C790.037 146.004 787.139 145.935 784.103 145.935C780.791 145.935 777.686 146.004 774.788 146.142C771.89 146.28 768.923 146.418 765.887 146.556C762.851 146.832 759.539 146.97 755.951 146.97Z" fill="black"/>
</svg>
