<svg width="584" height="552" viewBox="0 0 584 552" fill="none" xmlns="http://www.w3.org/2000/svg">
<path fill-rule="evenodd" clip-rule="evenodd" d="M545.782 335.001C512.404 304.014 458.705 285.961 414.324 275.632C416.397 266.143 417.516 256.471 417.665 246.76C417.849 246.761 418.031 246.723 418.199 246.649C418.368 246.575 418.519 246.467 418.643 246.332C418.767 246.196 418.862 246.036 418.92 245.861C418.979 245.687 419 245.502 418.983 245.319C417.788 232.262 414.202 208.846 408.378 196.923C395.965 171.453 374.939 154.81 349.315 143.868C329.27 135.347 306.406 134.673 299.05 132.895C297.63 129.724 297.049 126.241 297.364 122.781C302.173 119.903 306.016 115.657 308.402 110.586C310.788 105.514 311.608 99.8467 310.758 94.3068C311.846 93.6457 312.872 92.8865 313.823 92.0387C314.026 92.146 314.252 92.2022 314.482 92.2022C314.711 92.2022 314.938 92.146 315.141 92.0387C318.218 90.6101 320.94 88.5165 323.11 85.9087C326.757 81.0353 324.244 78.9511 324.796 72.484C324.847 71.1293 325.159 69.7972 325.715 68.5608C332.519 54.9828 333.837 47.7494 330.711 32.1179C329.424 25.7121 323.232 25.0684 320.351 22.1567C317.47 19.2449 318.083 13.1456 313.148 10.1725C305.929 5.76226 297.994 2.65025 289.701 0.97754C268.583 -2.63916 267.051 11.5824 253.963 11.3066C245.075 11.1227 237.504 6.40259 225.091 16.3945C221.243 19.3302 218.098 23.088 215.887 27.3936C213.676 31.6993 212.454 36.4442 212.31 41.2823C212.617 49.0367 218.593 57.4042 218.808 64.8828C218.992 71.0128 216.386 78.3075 220.126 83.2728C221.75 85.4183 224.172 87.0427 224.968 89.4028C226.739 91.5148 228.804 93.3623 231.098 94.8891C231.306 94.9667 231.535 94.9667 231.742 94.8891C234.642 97.3 238.046 99.0283 241.703 99.9464C244.407 108.854 249.751 116.731 257.028 122.535C256.043 125.619 254.845 128.63 253.442 131.547C251.353 132.523 249.178 133.303 246.945 133.876C222.792 140.711 201.245 141.508 173.752 165.415C154.455 181.798 140.858 203.885 134.919 228.493C133.21 235.728 132.285 243.127 132.16 250.561C132.16 253.932 132.16 254.698 136.175 254.76C136.818 263.417 138.171 272.008 140.221 280.444C64.9142 303.401 -9.71861 350.755 2.08164 428.606C12.5026 497.232 109.939 527.759 178.319 540.142C243.386 551.409 309.626 554.314 375.429 548.785C428.239 544.249 474.398 534.134 503.577 519.422C584.524 478.29 612.599 397.159 545.782 335.001ZM413.006 274.253C407.796 292.643 395.597 298.252 376.992 302.298C363.721 305.363 346.741 298.375 336.626 289.271C324.734 278.575 287.924 235.174 281.119 228.86C279.525 223.374 276.614 195.145 277.84 189.015C278.514 188.28 278.667 188.494 279.096 189.015C280.261 190.456 280.169 190.732 289.272 217.305C289.374 217.606 289.575 217.864 289.842 218.036C290.109 218.209 290.427 218.286 290.743 218.255C316.489 215.528 352.043 230.761 358.572 240.078C358.739 240.237 358.936 240.359 359.153 240.438C359.369 240.517 359.599 240.551 359.828 240.538C368.809 240.538 407.52 241.641 416.347 246.668V246.883C416.046 256.087 414.928 265.246 413.006 274.253ZM490.336 378.034C502.989 377.806 515.54 380.337 527.116 385.451C559.758 401.297 535.453 427.442 490.336 427.411C489.987 427.387 489.642 427.497 489.37 427.718C489.099 427.94 488.922 428.256 488.875 428.603C488.828 428.95 488.915 429.302 489.118 429.587C489.321 429.872 489.625 430.069 489.968 430.139C502.964 433.817 511.423 439.763 514.488 446.414C516.94 451.992 515.224 457.969 508.941 463.272C493.187 476.666 459.901 478.842 437.649 472.467C437.333 472.38 436.998 472.404 436.698 472.534C436.397 472.664 436.15 472.892 435.997 473.181C435.844 473.47 435.793 473.802 435.854 474.124C435.914 474.445 436.083 474.736 436.331 474.949C442.461 480.252 444.3 486.228 441.848 491.776C431.979 514.12 369.545 518.625 346.128 498.795C345.918 498.611 345.66 498.492 345.384 498.452C345.109 498.412 344.827 498.453 344.574 498.57C344.321 498.686 344.107 498.874 343.959 499.11C343.81 499.346 343.733 499.62 343.737 499.898C343.737 521.353 288.107 532.97 255.312 517.093C246.117 512.679 240.324 506.672 240.324 499.898C240.323 499.625 240.244 499.358 240.097 499.128C239.95 498.898 239.741 498.715 239.494 498.599C239.246 498.483 238.971 498.44 238.7 498.475C238.43 498.51 238.174 498.621 237.964 498.795C230.271 505.293 217.551 509.461 203.605 511.055C191.274 512.367 178.807 511.401 166.825 508.204C153.83 504.526 145.37 498.611 142.305 491.929C139.853 486.382 141.57 480.405 147.853 475.072C148.098 474.862 148.263 474.574 148.321 474.257C148.379 473.939 148.326 473.612 148.172 473.329C148.018 473.046 147.771 472.824 147.473 472.7C147.176 472.577 146.844 472.559 146.535 472.65C124.406 478.78 91.0892 476.88 75.2125 463.455C69.0825 458.122 67.1823 452.146 69.6342 446.537C72.6992 439.886 81.128 433.909 94.1543 430.231C94.4777 430.162 94.7633 429.973 94.9543 429.703C95.1452 429.433 95.2277 429.101 95.1852 428.773C95.1428 428.445 94.9785 428.145 94.7251 427.932C94.4716 427.72 94.1475 427.61 93.8171 427.626C49.0068 427.626 23.9044 401.573 57.0371 385.482C68.6053 380.337 81.1585 377.785 93.8171 378.003C94.092 378.017 94.362 377.927 94.5741 377.751C94.7862 377.576 94.9251 377.328 94.9635 377.055C95.0018 376.783 94.937 376.505 94.7816 376.278C94.6262 376.051 94.3915 375.89 94.1236 375.827C81.0054 372.149 72.3927 366.142 69.4197 359.399C66.8757 353.698 68.5921 347.568 74.998 342.112C84.9593 333.622 101.633 330.128 114.843 329.423C110.022 336.214 107.547 344.392 107.794 352.717C108.376 366.785 122.751 378.248 134.735 385.758C131.417 392.293 130.443 399.77 131.976 406.937C136.083 427.227 163.791 438.445 183.53 444.269C181.721 452.728 177.706 501.553 185.89 500.573C195.79 499.408 199.13 469.064 210.41 463.455C211.942 462.72 223.436 459.777 240.845 455.088C281.596 459.509 322.71 459.437 363.445 454.873C371.046 456.406 375.705 457.356 376.778 457.755C388.486 462.597 393.789 492.696 403.719 493.217C411.198 493.615 405.681 454.046 404.455 446.598C440.07 435.012 468.544 406.263 444.3 378.156C455.978 370.187 470.598 358.019 471.885 343.951C472.21 339.091 471.478 334.218 469.739 329.668C482.796 330.404 499.225 333.898 509.063 342.265C515.377 347.66 517.124 353.698 514.611 359.337C511.546 366.019 503.087 371.965 490.091 375.643C489.859 375.761 489.668 375.946 489.543 376.175C489.418 376.403 489.366 376.664 489.392 376.923C489.419 377.182 489.523 377.426 489.692 377.625C489.86 377.823 490.085 377.966 490.336 378.034ZM160.757 304.995C155.742 305.223 150.773 306.046 145.953 307.447C148.469 305.065 151.319 303.062 154.412 301.501C156.405 302.874 158.531 304.044 160.757 304.995ZM197.874 432.775C203.36 440.069 205.352 445.464 214.639 459.777C211.574 460.636 209.889 461.187 209.337 461.463C197.414 467.593 193.675 497.691 185.43 498.764C184.694 498.764 183.989 496.711 183.805 495.975C180.924 485.769 182.365 453.433 184.48 443.87C184.725 442.613 196.77 433.602 197.874 432.775ZM442.185 379.229C465.111 406.079 437.434 432.683 403.627 443.594C403.076 440.529 402.493 437.955 402.003 436.238C401.145 433.388 375.245 416.929 371.966 414.783C347.518 425.133 322.336 433.657 296.628 440.284C333.868 448.713 331.692 447.334 330.527 447.977C339.324 449.816 347.231 451.41 353.882 452.728C318.782 455.993 283.455 455.993 248.354 452.728C302.85 437.985 395.229 410.462 442.185 379.229ZM393.574 430.905C396.184 432.589 398.627 434.518 400.869 436.667C403.535 445.862 407.98 484.359 404.118 490.826C403.934 491.163 403.75 491.408 403.474 491.408C395.076 490.887 388.946 459.44 376.87 455.609C383.031 447.64 388.149 438.935 393.697 430.905H393.574ZM396.241 300.397C368.502 309.592 202.073 424.867 184.756 441.633C165.998 436.208 138.137 425.419 134.214 406.232C132.797 399.741 133.641 392.961 136.605 387.014C158.305 400.071 188.311 410.768 212.494 418.339C259.48 382.57 265.059 377.666 286.054 362.831C263.526 349.683 212.831 320.565 188.863 310.205C191.551 309.911 194.208 309.378 196.801 308.612V312.351L199.682 313.73V307.6C207.705 304.756 215.022 300.22 221.137 294.298C228.616 286.881 246.761 263.893 253.841 255.005C254.547 255.229 255.302 255.253 256.022 255.075C256.741 254.896 257.397 254.522 257.917 253.993C259.887 252.003 261.578 249.756 262.944 247.312C263.273 246.78 263.432 246.16 263.399 245.536C263.367 244.911 263.143 244.312 262.76 243.818C274.836 228.738 273.61 231.159 274.008 230.148C274.972 224.164 275.535 218.123 275.694 212.064C276.211 218.11 277.154 224.112 278.514 230.025C278.615 230.298 278.784 230.54 279.004 230.73C283.633 234.898 307.141 262.238 323.171 279.402C333.408 290.375 340.304 297.792 354.679 302.604C360.959 304.852 367.656 305.689 374.295 305.056C374.295 306.895 374.51 308.55 374.571 309.96L377.36 308.673C377.36 308.458 377.36 305.822 377.115 304.566C385.912 302.665 395.689 299.692 402.616 294.114C407.63 294.672 412.592 295.636 417.45 296.995C410.275 296.996 403.149 298.187 396.363 300.52L396.241 300.397ZM260.768 241.948C254.638 237.197 254.055 238.117 250.316 232.171C251.302 231.531 252.147 230.697 252.799 229.719C254.339 226.354 254.983 222.648 254.668 218.96C256.863 218.838 259.063 218.838 261.258 218.96C261.576 218.971 261.889 218.874 262.145 218.685C262.401 218.496 262.585 218.226 262.668 217.918C270.637 189.598 270.821 187.268 272.507 189.015C274.1 195.145 272.69 223.466 271.434 229.075C269.687 230.883 265.764 235.695 260.768 241.948ZM251.971 219.757C251.922 221.423 251.747 223.083 251.45 224.723C248.35 226.241 244.94 227.017 241.489 226.991C238.698 227.053 235.919 226.628 233.275 225.734C233.672 223.68 234.486 221.73 235.665 220.002C240.815 217.121 248.875 214.7 251.971 219.757ZM218.716 143.623C229.443 140.558 248.14 136.604 253.626 134.182C255.373 133.416 255.925 133.661 259.756 122.505C259.828 122.272 259.825 122.023 259.748 121.792C259.672 121.561 259.524 121.36 259.327 121.217C251.94 115.673 246.509 107.923 243.818 99.0882C243.267 97.0653 235.022 97.4331 231.558 90.9353C230.276 87.438 230.408 83.5787 231.926 80.1771C232.218 79.5763 232.684 79.077 233.264 78.7437C233.843 78.4104 234.508 78.2585 235.175 78.3075C236.595 78.543 237.922 79.1691 239.006 80.1158C239.527 80.5756 241.182 80.1158 241.734 77.0508C242.684 71.9936 240.079 55.3506 242.684 46.4008C244.922 38.6464 251.144 37.2058 258.009 40.4854C268.43 45.4813 269.963 52.2243 286.881 55.8104C290.694 56.602 294.574 57.0229 298.467 57.067C300.061 57.067 305.425 55.1361 307.11 55.32C308.306 57.3735 306.559 68.0091 308.03 70.8902C308.279 71.4499 308.676 71.9312 309.178 72.2822C309.681 72.6332 310.269 72.8407 310.88 72.8824C311.911 72.8775 312.938 72.7645 313.945 72.5453C314.221 72.5453 315.079 72.3307 315.263 72.5453C316.202 73.5501 316.932 74.7313 317.411 76.0203C317.889 77.3093 318.108 78.6806 318.053 80.0545C318.236 84.6214 313.547 89.9851 313.424 90.6594C310.574 93.3873 309.532 93.1421 309.624 94.031C311.769 115.486 296.352 120.329 296.107 122.198C295.644 126.196 296.28 130.244 297.946 133.907C299.203 136.451 325.746 135.807 348.856 145.799C374.418 156.833 394.831 173.384 406.539 197.904C412.025 209.336 415.274 231.282 416.562 243.879C406.999 242.745 408.96 239.618 360.441 238.362C358.799 236.42 356.902 234.708 354.802 233.274C354.693 228.045 354.129 222.835 353.116 217.704C352.81 211.819 348.978 196.525 347.477 195.237C346.986 194.686 346.159 195.421 346.588 196.004C346.894 196.004 348.304 210.593 353.177 232.171C337.852 221.872 312.076 213.781 291.877 215.282C282.805 189.107 283.081 190.18 282.1 188.31C281.119 186.441 279.863 185.245 277.993 185.644C277.37 185.776 276.788 186.057 276.298 186.463C275.807 186.868 275.421 187.387 275.173 187.973C274.886 187.376 274.456 186.86 273.922 186.47C273.387 186.079 272.764 185.827 272.108 185.736C270.238 185.521 269.043 186.962 268.154 188.801C267.265 190.64 267.419 190.303 260.216 216.386C257.659 216.331 255.101 216.412 252.553 216.631C247.649 212.585 239.65 215.803 234.868 219.359C234.608 219.623 234.372 219.91 234.163 220.217C221.966 223.647 210.433 229.108 200.05 236.37C200.479 233.887 200.939 231.558 201.552 227.328C202.989 219.212 204.012 211.028 204.617 202.808C205.015 198.915 204.065 197.812 202.962 202.225C200.072 213.752 198.61 225.59 198.609 237.473C196.572 239.005 194.766 240.821 193.246 242.867C182.028 243.848 149.171 246.27 138.75 251.94C137.556 252.019 136.358 252.019 135.164 251.94C132.375 209.581 169.768 157.17 218.716 143.623ZM137.371 254.116C143.838 248.2 181.813 245.718 190.426 245.197C187.563 247.149 185.268 249.824 183.775 252.951C183.775 253.319 183.254 254.208 183.775 254.392C184.296 254.576 186.38 252.614 186.656 252.369C196.157 244.829 197.016 236.4 225.428 225.611C227.604 224.784 229.842 224.018 232.11 223.313C231.754 224.069 231.477 224.86 231.282 225.673C231.085 225.821 230.928 226.017 230.827 226.242C230.725 226.467 230.681 226.714 230.7 226.96C230.729 228.936 231.508 230.828 232.879 232.251C234.251 233.674 236.113 234.522 238.087 234.623C238.884 234.623 238.087 234.163 239.834 238.883C240.222 239.956 240.725 240.984 241.336 241.948C244.078 246.38 247.443 250.395 251.327 253.871C244.676 262.238 226.378 285.44 219.298 292.551C210.563 301.317 196.096 308.489 183.591 308.152C178.243 306.366 172.673 305.334 167.04 305.087C154.473 301.409 146.658 294.758 142.213 281.762C139.69 272.729 138.068 263.469 137.371 254.116ZM502.351 516.848C412.853 561.842 163.546 562.424 55.5659 494.902C27.6437 477.401 8.94724 455.364 4.80949 428.177C-6.89881 351.828 67.3968 305.271 140.834 282.559C142.973 289.666 147.254 295.939 153.094 300.52C149.247 302.484 145.814 305.168 142.98 308.428C132.37 311.964 123.026 318.527 116.1 327.308C102.154 327.829 84.285 331.385 73.6188 340.396C66.2934 346.526 64.4237 353.636 67.4887 360.104C70.5537 366.571 76.9902 371.812 87.4419 375.796C41.2217 378.402 23.6592 406.722 55.9337 422.415C65.5868 426.816 75.9877 429.343 86.5837 429.863C76.4998 433.848 69.9101 439.395 67.3048 445.188C64.2398 451.778 66.1401 458.95 73.4348 465.294C89.2502 478.719 120.575 481.14 142.397 476.359C140.405 478.555 139.093 481.282 138.62 484.209C138.147 487.136 138.533 490.137 139.731 492.849C142.796 500.052 151.991 506.703 165.998 510.687C193.246 518.411 223.65 512.771 237.811 502.534C242.316 525.644 297.824 535.238 330.129 519.606C339.324 515.193 345.178 509.155 346.465 502.534C360.779 512.894 391.306 518.319 418.278 510.687C432.346 506.733 441.388 500.052 444.576 492.849C445.768 490.141 446.15 487.146 445.677 484.225C445.204 481.304 443.895 478.583 441.909 476.39C463.64 481.141 495.026 478.75 510.872 465.294C518.32 458.981 520.067 451.778 517.002 445.157C514.396 439.303 507.807 433.786 497.968 429.832C508.455 429.26 518.744 426.745 528.312 422.415C560.647 406.722 543.085 378.524 497.662 375.582C507.745 371.597 514.366 366.019 516.971 360.104C519.852 353.545 518.074 346.403 510.688 340.15C500.206 331.293 482.766 327.645 468.789 327.032C461.586 310.972 444.269 300.122 425.665 297.608C418.943 294.964 411.906 293.202 404.731 292.367C409.082 288.041 412.248 282.669 413.926 276.766C457.694 287.279 511.485 305.577 544.372 336.411C609.871 397.834 581.643 477.033 502.351 516.848Z" fill="#282B28"/>
<path fill-rule="evenodd" clip-rule="evenodd" d="M204.77 315.845C227.053 326.266 253.596 338.71 279.219 355.69C282.1 357.59 285.349 359.307 288.414 361.238C313.669 343.106 340.315 326.995 368.104 313.056C335.646 310.91 238.577 314.527 204.77 315.845ZM273.916 95.8393C275.315 96.6301 276.888 97.0585 278.494 97.0852C280.101 97.112 281.688 96.7364 283.111 95.9925C283.398 95.7652 283.585 95.4355 283.633 95.073C283.555 92.0239 283.279 88.9831 282.805 85.97C282.249 81.553 281.158 77.2201 279.556 73.0663C279.515 72.9159 279.417 72.7879 279.282 72.7103C279.147 72.6327 278.986 72.6119 278.836 72.6525C278.685 72.6932 278.557 72.7919 278.48 72.927C278.402 73.0621 278.381 73.2224 278.422 73.3728C278.851 76.162 280.445 91.0272 280.935 94.1229C278.848 94.982 276.546 95.1747 274.346 94.6746C274.269 94.6464 274.188 94.6336 274.106 94.6368C274.025 94.64 273.945 94.6593 273.871 94.6934C273.797 94.7276 273.73 94.776 273.675 94.8359C273.62 94.8957 273.577 94.9659 273.549 95.0424C273.521 95.1189 273.508 95.2001 273.511 95.2816C273.514 95.363 273.533 95.443 273.568 95.517C273.602 95.591 273.65 95.6576 273.71 95.7128C273.77 95.7681 273.84 95.8111 273.916 95.8393ZM280.874 94.46V94.7972C280.874 94.7972 280.843 94.4907 280.874 94.46ZM262.3 82.5985C263.611 82.078 264.808 81.3077 265.825 80.3304C265.936 80.2411 266.011 80.1141 266.034 79.9736C266.058 79.833 266.03 79.6886 265.954 79.5677C265.879 79.4468 265.761 79.3578 265.624 79.3176C265.488 79.2774 265.341 79.2888 265.212 79.3496C262.896 79.9475 260.522 80.2867 258.132 80.361C255.733 80.3178 253.343 80.0614 250.99 79.5948C250.923 79.5444 250.847 79.509 250.765 79.4909C250.683 79.4729 250.598 79.4727 250.517 79.4904C250.435 79.508 250.358 79.5431 250.291 79.5932C250.224 79.6434 250.168 79.7073 250.128 79.7808C250.088 79.8542 250.064 79.9355 250.059 80.019C250.053 80.1025 250.065 80.1862 250.094 80.2646C250.124 80.3429 250.17 80.414 250.229 80.4729C250.289 80.5319 250.36 80.5774 250.439 80.6062C251.496 81.5075 252.712 82.2039 254.025 82.6598C256.729 83.4528 259.608 83.4315 262.3 82.5985ZM287.862 78.3075C291.234 82.4452 300.613 82.7517 302.789 77.6638C302.833 77.6014 302.865 77.5309 302.882 77.4564C302.899 77.3818 302.901 77.3046 302.888 77.2292C302.875 77.1537 302.848 77.0816 302.807 77.0168C302.766 76.952 302.713 76.8959 302.651 76.8516C302.588 76.8073 302.518 76.7758 302.443 76.7587C302.369 76.7417 302.292 76.7395 302.216 76.7524C302.141 76.7652 302.069 76.7927 302.004 76.8334C301.939 76.8741 301.883 76.9271 301.839 76.9895C300.945 77.6598 299.885 78.0731 298.774 78.1849C296.526 78.6139 294.217 78.6139 291.969 78.1849C290.805 78.053 289.662 77.775 288.567 77.3573C288.015 76.775 287.28 77.8171 287.862 78.3075ZM271.25 108.253C273.746 109.171 276.427 109.476 279.066 109.141C280.717 109.108 282.353 108.808 283.908 108.253C284.063 108.253 284.211 108.191 284.32 108.082C284.429 107.973 284.491 107.825 284.491 107.67C284.491 107.516 284.429 107.368 284.32 107.258C284.211 107.149 284.063 107.088 283.908 107.088C282.366 106.622 280.768 106.364 279.158 106.322C276.516 106.129 273.86 106.399 271.311 107.118C271.227 107.095 271.139 107.09 271.053 107.105C270.966 107.12 270.885 107.154 270.813 107.204C270.742 107.255 270.683 107.321 270.641 107.398C270.599 107.475 270.575 107.56 270.57 107.647C270.565 107.734 270.58 107.822 270.614 107.902C270.648 107.983 270.699 108.055 270.764 108.113C270.83 108.172 270.907 108.214 270.991 108.238C271.075 108.262 271.164 108.267 271.25 108.253Z" fill="#282B28"/>
</svg>
